<?xml version="1.0" encoding="UTF-8" standalone="no"?>
<!DOCTYPE svg PUBLIC "-//W3C//DTD SVG 1.1//EN" "http://www.w3.org/Graphics/SVG/1.1/DTD/svg11.dtd">
<!-- Generated by Microsoft Visio, SVG Export ppd-logical-data-model.svg Acquisition-Component -->
<svg xmlns="http://www.w3.org/2000/svg" xmlns:xlink="http://www.w3.org/1999/xlink" xmlns:ev="http://www.w3.org/2001/xml-events"
		width="12.0366in" height="7.20333in" viewBox="0 0 866.634 518.64" xml:space="preserve" color-interpolation-filters="sRGB"
		class="st16">
	<title>Component Design</title>

	<style type="text/css">
	<![CDATA[
		.st1 {fill:#f2f2f2;stroke:#000000;stroke-linecap:round;stroke-linejoin:round;stroke-width:0.75}
		.st2 {fill:#ffffff;stroke:#000000;stroke-linecap:round;stroke-linejoin:round;stroke-width:0.75}
		.st3 {fill:#000000;font-family:Calibri;font-size:0.666664em}
		.st4 {fill:#ffffff}
		.st5 {stroke:#000000;stroke-dasharray:1.5,0.75;stroke-linecap:butt;stroke-width:0.75}
		.st6 {fill:#000000;font-family:Calibri;font-size:0.666664em;font-weight:bold}
		.st7 {fill:#bfbfbf}
		.st8 {stroke:#000000;stroke-linecap:round;stroke-linejoin:round;stroke-width:0.239976}
		.st9 {fill:#7f7f7f}
		.st10 {fill:#7f7f7f;font-family:Calibri;font-size:0.666664em}
		.st11 {fill:none;stroke:none;stroke-linecap:round;stroke-linejoin:round;stroke-width:0.75}
		.st12 {font-size:1em;font-weight:bold}
		.st13 {font-size:1em}
		.st14 {fill:#7f7f7f;font-family:Calibri;font-size:0.666664em;font-weight:bold}
		.st15 {font-size:1em;font-weight:normal}
		.st16 {fill:none;fill-rule:evenodd;font-size:12px;overflow:visible;stroke-linecap:square;stroke-miterlimit:3}
	]]>
	</style>

	<g>
		<title>PPD Logical</title>
		<g id="group1019-1" transform="translate(380.167,-119.78)">
			<title>Entity.1030.1019</title>
			<desc>Property Fact</desc>
			<g id="shape1020-2">
				<title>Sheet.1020</title>
				<rect x="0" y="308.234" width="113.386" height="210.406" class="st1"/>
			</g>
			<g id="shape1021-4" transform="translate(0,-179.225)">
				<title>Sheet.1021</title>
				<path d="M0 518.64 L113.39 518.64 L113.39 487.46 L0 487.46 L0 518.64 Z" class="st2"/>
			</g>
			<g id="shape1019-6">
				<text x="34.8" y="326.22" class="st3">Property Fact</text>			</g>
		</g>
		<g id="shape1026-8" transform="translate(380.167,-299.005)">
			<title>Primary Key Separator.1026</title>
			<path d="M0 518.64 L113.39 518.64 L0 518.64 Z" class="st4"/>
			<path d="M0 518.64 L113.39 518.64" class="st5"/>
		</g>
		<g id="group1027-11" transform="translate(380.167,-273.401)">
			<title>Attribute.1027</title>
			<desc>Price Date ID</desc>
			<g id="shape1027-12">
				<text x="34.02" y="508.24" class="st6">Price Date ID</text>			</g>
			<g id="shape1028-15" transform="translate(4.25197,-4.29784)">
				<title>Sheet.1028</title>
				<desc>PK</desc>
				<path d="M1.7 516.12 L4.25 518.64 L6.17 516.75 L6.17 510.45 L7.44 510.45 L6.8 509.19 A4.2097 4.2097 -180 1 0 1.7
							 509.19 L1.06 510.45 L2.34 510.45 L2.34 511.08 L1.38 512.34 L2.98 513.6 L2.98 514.23 L1.7 515.49 L1.7
							 516.12 Z" class="st7"/>
			</g>
			<g id="shape1029-18" transform="translate(12.7559,0)">
				<title>Sheet.1029</title>
				<text x="0" y="508.24" class="st3">FK</text>			</g>
		</g>
		<g id="group1030-20" transform="translate(380.167,-119.78)">
			<title>Attribute.1030</title>
			<desc>Price</desc>
			<g id="shape1030-21">
				<text x="34.02" y="508.24" class="st3">Price</text>			</g>
			<g id="shape1031-24" transform="translate(4.25197,-4.29784)">
				<title>Sheet.1031</title>
				<desc>PK</desc>
			</g>
		</g>
		<g id="group1033-26" transform="translate(380.167,-247.798)">
			<title>Attribute.1033</title>
			<desc>Address ID</desc>
			<g id="shape1033-27">
				<text x="34.02" y="508.24" class="st3">Address ID</text>			</g>
			<g id="shape1034-30" transform="translate(4.25197,-4.29784)">
				<title>Sheet.1034</title>
				<desc>PK</desc>
				<path d="M1.7 516.12 L4.25 518.64 L6.17 516.75 L6.17 510.45 L7.44 510.45 L6.8 509.19 A4.2097 4.2097 -180 1 0 1.7
							 509.19 L1.06 510.45 L2.34 510.45 L2.34 511.08 L1.38 512.34 L2.98 513.6 L2.98 514.23 L1.7 515.49 L1.7
							 516.12 Z" class="st7"/>
			</g>
			<g id="shape1035-33" transform="translate(12.7559,0)">
				<title>Sheet.1035</title>
				<text x="0" y="508.24" class="st3">FK</text>			</g>
		</g>
		<g id="group1036-35" transform="translate(380.167,-145.384)">
			<title>Attribute.1036</title>
			<desc>New Build ID</desc>
			<g id="shape1036-36">
				<text x="34.02" y="508.24" class="st3">New Build ID</text>			</g>
			<g id="shape1037-39" transform="translate(4.25197,-4.29784)">
				<title>Sheet.1037</title>
				<desc>PK</desc>
				<path d="M1.7 516.12 L4.25 518.64 L6.17 516.75 L6.17 510.45 L7.44 510.45 L6.8 509.19 A4.2097 4.2097 -180 1 0 1.7
							 509.19 L1.06 510.45 L2.34 510.45 L2.34 511.08 L1.38 512.34 L2.98 513.6 L2.98 514.23 L1.7 515.49 L1.7
							 516.12 Z" class="st7"/>
			</g>
			<g id="shape1038-42" transform="translate(12.7559,0)">
				<title>Sheet.1038</title>
				<text x="0" y="508.24" class="st3">FK</text>			</g>
		</g>
		<g id="group1039-44" transform="translate(380.167,-170.987)">
			<title>Attribute.1039</title>
			<desc>Ownership Type ID</desc>
			<g id="shape1039-45">
				<text x="34.02" y="508.24" class="st3">Ownership Type ID</text>			</g>
			<g id="shape1040-48" transform="translate(4.25197,-4.29784)">
				<title>Sheet.1040</title>
				<desc>PK</desc>
				<path d="M1.7 516.12 L4.25 518.64 L6.17 516.75 L6.17 510.45 L7.44 510.45 L6.8 509.19 A4.2097 4.2097 -180 1 0 1.7
							 509.19 L1.06 510.45 L2.34 510.45 L2.34 511.08 L1.38 512.34 L2.98 513.6 L2.98 514.23 L1.7 515.49 L1.7
							 516.12 Z" class="st7"/>
			</g>
			<g id="shape1041-51" transform="translate(12.7559,0)">
				<title>Sheet.1041</title>
				<text x="0" y="508.24" class="st3">FK</text>			</g>
		</g>
		<g id="group1042-53" transform="translate(380.167,-196.591)">
			<title>Attribute.1042</title>
			<desc>Property Type ID</desc>
			<g id="shape1042-54">
				<text x="34.02" y="508.24" class="st3">Property Type ID</text>			</g>
			<g id="shape1043-57" transform="translate(4.25197,-4.29784)">
				<title>Sheet.1043</title>
				<desc>PK</desc>
				<path d="M1.7 516.12 L4.25 518.64 L6.17 516.75 L6.17 510.45 L7.44 510.45 L6.8 509.19 A4.2097 4.2097 -180 1 0 1.7
							 509.19 L1.06 510.45 L2.34 510.45 L2.34 511.08 L1.38 512.34 L2.98 513.6 L2.98 514.23 L1.7 515.49 L1.7
							 516.12 Z" class="st7"/>
			</g>
			<g id="shape1044-60" transform="translate(12.7559,0)">
				<title>Sheet.1044</title>
				<text x="0" y="508.24" class="st3">FK</text>			</g>
		</g>
		<g id="group1045-62" transform="translate(380.167,-222.194)">
			<title>Attribute.1045</title>
			<desc>Location ID</desc>
			<g id="shape1045-63">
				<text x="34.02" y="508.24" class="st3">Location ID</text>			</g>
			<g id="shape1046-66" transform="translate(4.25197,-4.29784)">
				<title>Sheet.1046</title>
				<desc>PK</desc>
				<path d="M1.7 516.12 L4.25 518.64 L6.17 516.75 L6.17 510.45 L7.44 510.45 L6.8 509.19 A4.2097 4.2097 -180 1 0 1.7
							 509.19 L1.06 510.45 L2.34 510.45 L2.34 511.08 L1.38 512.34 L2.98 513.6 L2.98 514.23 L1.7 515.49 L1.7
							 516.12 Z" class="st7"/>
			</g>
			<g id="shape1047-69" transform="translate(12.7559,0)">
				<title>Sheet.1047</title>
				<text x="0" y="508.24" class="st3">FK</text>			</g>
		</g>
		<g id="group1048-71" transform="translate(252.608,-456.282)">
			<title>Relationship.1034.1048</title>
			<g id="shape1048-72">
				<path d="M0 518.64 L56.69 518.64 L56.69 688.72 L127.56 688.72" class="st8"/>
			</g>
		</g>
		<g id="group1053-75" transform="translate(153.396,-366.669)">
			<title>Entity.1053</title>
			<desc>Date Dim</desc>
			<g id="shape1054-76">
				<title>Sheet.1054</title>
				<rect x="0" y="385.044" width="99.2126" height="133.595" class="st1"/>
			</g>
			<g id="shape1055-78" transform="translate(0,-102.414)">
				<title>Sheet.1055</title>
				<path d="M0 518.64 L99.21 518.64 L99.21 487.46 L0 487.46 L0 518.64 Z" class="st2"/>
			</g>
			<g id="shape1053-80">
				<text x="34.42" y="403.04" class="st3">Date Dim</text>			</g>
		</g>
		<g id="shape1057-82" transform="translate(153.396,-469.084)">
			<title>Primary Key Separator.1057</title>
			<path d="M0 518.64 L99.21 518.64 L0 518.64 Z" class="st4"/>
			<path d="M0 518.64 L99.21 518.64" class="st5"/>
		</g>
		<g id="group1058-85" transform="translate(153.396,-443.48)">
			<title>Attribute.1058</title>
			<desc>ID</desc>
			<g id="shape1058-86">
				<path d="M0 518.64 L99.21 518.64 L99.21 493.04 L0 493.04 L0 518.64 Z" class="st4"/>
				<text x="34.02" y="508.24" class="st6">ID</text>			</g>
			<g id="shape1059-90" transform="translate(4.25197,-4.29784)">
				<title>Sheet.1059</title>
				<desc>PK</desc>
				<path d="M1.7 516.12 L4.25 518.64 L6.17 516.75 L6.17 510.45 L7.44 510.45 L6.8 509.19 A4.2097 4.2097 -180 1 0 1.7
							 509.19 L1.06 510.45 L2.34 510.45 L2.34 511.08 L1.38 512.34 L2.98 513.6 L2.98 514.23 L1.7 515.49 L1.7
							 516.12 Z" class="st9"/>
				<text x="8.5" y="512.54" class="st10">PK</text>			</g>
		</g>
		<g id="group1064-94" transform="translate(153.396,-417.877)">
			<title>Attribute.1064</title>
			<desc>Business Date</desc>
			<g id="shape1064-95">
				<text x="34.02" y="508.24" class="st6">Business Date</text>			</g>
			<g id="shape1065-98" transform="translate(4.25197,-4.29784)">
				<title>Sheet.1065</title>
				<desc>PK</desc>
			</g>
		</g>
		<g id="group1073-100" transform="translate(153.396,-366.669)">
			<title>Attribute.1073</title>
			<desc>Year</desc>
			<g id="shape1073-101">
				<text x="34.02" y="508.24" class="st3">Year</text>			</g>
			<g id="shape1074-104" transform="translate(4.25197,-4.29784)">
				<title>Sheet.1074</title>
				<desc>PK</desc>
			</g>
		</g>
		<g id="group1076-106" transform="translate(153.396,-392.273)">
			<title>Attribute.1076</title>
			<desc>Month</desc>
			<g id="shape1076-107">
				<text x="34.02" y="508.24" class="st3">Month</text>			</g>
			<g id="shape1077-110" transform="translate(4.25197,-4.29784)">
				<title>Sheet.1077</title>
				<desc>PK</desc>
			</g>
		</g>
		<g id="shape1079-112" transform="translate(252.608,-457.745)">
			<title>Sheet.1079</title>
			<desc>1 .. 1</desc>
			<rect x="0" y="504.467" width="29.1369" height="14.1732" class="st11"/>
			<text x="6.69" y="513.95" class="st3">1 .. 1</text>		</g>
		<g id="shape1080-115" transform="translate(295.128,-451.918)">
			<title>Sheet.1080</title>
			<desc>A property price must have only one price date</desc>
			<rect x="0" y="484.467" width="85.4346" height="34.1732" class="st11"/>
			<text x="6.97" y="494.35" class="st10">A property price <tspan class="st12">must </tspan><tspan x="10.84" dy="1.2em"
						class="st13">have only </tspan><tspan class="st12">one</tspan> price <tspan x="35.37" dy="1.2em"
						class="st13">date</tspan></text>		</g>
		<g id="shape1081-122" transform="translate(351.03,-287.666)">
			<title>Sheet.1081</title>
			<desc>0 . .*</desc>
			<rect x="0" y="504.467" width="29.1369" height="14.1732" class="st11"/>
			<text x="6.72" y="513.95" class="st3">0 . .*</text>		</g>
		<g id="shape1082-125" transform="translate(309.301,-337.273)">
			<title>Sheet.1082</title>
			<desc>A business date may be when many properties were sold</desc>
			<rect x="0" y="490.293" width="99.2126" height="28.3465" class="st11"/>
			<text x="11.21" y="497.27" class="st10">A business date <tspan class="st12">may</tspan> be <tspan x="12.57" dy="1.2em"
						class="st13">when </tspan><tspan class="st12">many</tspan> properties <tspan x="33.77" dy="1.2em"
						class="st13">were sold</tspan></text>		</g>
		<g id="group1083-132" transform="translate(606.939,-385.186)">
			<title>Entity.1083</title>
			<desc>Location Dim</desc>
			<g id="shape1084-133">
				<title>Sheet.1084</title>
				<rect x="0" y="410.648" width="85.0394" height="107.992" class="st1"/>
			</g>
			<g id="shape1085-135" transform="translate(0,-76.8107)">
				<title>Sheet.1085</title>
				<path d="M0 518.64 L85.04 518.64 L85.04 487.46 L0 487.46 L0 518.64 Z" class="st2"/>
			</g>
			<g id="shape1083-137">
				<text x="21.17" y="428.64" class="st3">Location Dim</text>			</g>
		</g>
		<g id="shape1087-139" transform="translate(606.939,-461.997)">
			<title>Primary Key Separator.1087</title>
			<path d="M0 518.64 L85.04 518.64 L0 518.64 Z" class="st4"/>
			<path d="M0 518.64 L85.04 518.64" class="st5"/>
		</g>
		<g id="group1088-142" transform="translate(606.939,-436.393)">
			<title>Attribute.1088</title>
			<desc>ID</desc>
			<g id="shape1088-143">
				<path d="M0 518.64 L85.04 518.64 L85.04 493.04 L0 493.04 L0 518.64 Z" class="st4"/>
				<text x="34.02" y="508.24" class="st6">ID</text>			</g>
			<g id="shape1089-147" transform="translate(4.25197,-4.29784)">
				<title>Sheet.1089</title>
				<desc>PK</desc>
				<path d="M1.7 516.12 L4.25 518.64 L6.17 516.75 L6.17 510.45 L7.44 510.45 L6.8 509.19 A4.2097 4.2097 -180 1 0 1.7
							 509.19 L1.06 510.45 L2.34 510.45 L2.34 511.08 L1.38 512.34 L2.98 513.6 L2.98 514.23 L1.7 515.49 L1.7
							 516.12 Z" class="st9"/>
				<text x="8.5" y="512.54" class="st10">PK</text>			</g>
		</g>
		<g id="group1091-151" transform="translate(606.939,-410.79)">
			<title>Attribute.1091</title>
			<desc>Postcode</desc>
			<g id="shape1091-152">
				<text x="34.02" y="508.24" class="st3">Postcode</text>			</g>
			<g id="shape1092-155" transform="translate(4.25197,-4.29784)">
				<title>Sheet.1092</title>
				<desc>PK</desc>
			</g>
		</g>
		<g id="group1097-157" transform="translate(606.939,-385.186)">
			<title>Attribute.1097</title>
			<desc>Locality</desc>
			<g id="shape1097-158">
				<text x="34.02" y="508.24" class="st6">Locality</text>			</g>
			<g id="shape1098-161" transform="translate(4.25197,-4.29784)">
				<title>Sheet.1098</title>
				<desc>PK</desc>
			</g>
		</g>
		<g id="group1100-163" transform="translate(493.553,-234.996)">
			<title>Relationship.1034.1100</title>
			<g id="shape1100-164">
				<path d="M0 518.64 L85.04 518.64 L85.04 304.44 L113.39 304.44" class="st8"/>
			</g>
		</g>
		<g id="shape1105-167" transform="translate(521.504,-451.918)">
			<title>Sheet.1105</title>
			<desc>A property price must have only one Location</desc>
			<rect x="0" y="484.467" width="85.4346" height="34.1732" class="st11"/>
			<text x="6.97" y="499.15" class="st10">A property price <tspan class="st12">must </tspan><tspan x="5.07" dy="1.2em"
						class="st13">have only </tspan><tspan class="st12">one</tspan> Location</text>		</g>
		<g id="shape1106-173" transform="translate(578.593,-429.399)">
			<title>Sheet.1106</title>
			<desc>1 .. 1</desc>
			<rect x="0" y="504.467" width="29.1369" height="14.1732" class="st11"/>
			<text x="6.69" y="513.95" class="st3">1 .. 1</text>		</g>
		<g id="shape1107-176" transform="translate(493.553,-234.631)">
			<title>Sheet.1107</title>
			<desc>0 . .*</desc>
			<rect x="0" y="504.467" width="29.1369" height="14.1732" class="st11"/>
			<text x="6.72" y="513.95" class="st3">0 . .*</text>		</g>
		<g id="shape1108-179" transform="translate(507.726,-266.407)">
			<title>Sheet.1108</title>
			<desc>A Location may be where many properties were sold</desc>
			<rect x="0" y="483.207" width="70.8661" height="35.4331" class="st11"/>
			<text x="5.32" y="488.92" class="st10">A Location <tspan class="st12">may</tspan> be <tspan x="14.92" dy="1.2em"
						class="st13">where </tspan><tspan class="st12">many</tspan> <tspan x="9.39" dy="1.2em" class="st13">properties were </tspan><tspan
						x="28.74" dy="1.2em" class="st13">sold</tspan></text>		</g>
		<g id="group1109-187" transform="translate(18.75,-143.783)">
			<title>Entity.1109</title>
			<desc>Address Dim</desc>
			<g id="shape1110-188">
				<title>Sheet.1110</title>
				<rect x="0" y="282.63" width="81.839" height="236.01" class="st1"/>
			</g>
			<g id="shape1111-190" transform="translate(0,-204.829)">
				<title>Sheet.1111</title>
				<path d="M0 518.64 L81.84 518.64 L81.84 487.46 L0 487.46 L0 518.64 Z" class="st2"/>
			</g>
			<g id="shape1109-192">
				<text x="20.41" y="300.62" class="st3">Address Dim</text>			</g>
		</g>
		<g id="shape1113-194" transform="translate(18.75,-348.611)">
			<title>Primary Key Separator.1113</title>
			<path d="M0 518.64 L81.84 518.64 L0 518.64 Z" class="st4"/>
			<path d="M0 518.64 L81.84 518.64" class="st5"/>
		</g>
		<g id="group1114-197" transform="translate(18.75,-323.008)">
			<title>Attribute.1114</title>
			<desc>ID</desc>
			<g id="shape1114-198">
				<path d="M0 518.64 L81.84 518.64 L81.84 493.04 L0 493.04 L0 518.64 Z" class="st4"/>
				<text x="34.02" y="508.24" class="st6">ID</text>			</g>
			<g id="shape1115-202" transform="translate(4.25197,-4.29784)">
				<title>Sheet.1115</title>
				<desc>PK</desc>
				<path d="M1.7 516.12 L4.25 518.64 L6.17 516.75 L6.17 510.45 L7.44 510.45 L6.8 509.19 A4.2097 4.2097 -180 1 0 1.7
							 509.19 L1.06 510.45 L2.34 510.45 L2.34 511.08 L1.38 512.34 L2.98 513.6 L2.98 514.23 L1.7 515.49 L1.7
							 516.12 Z" class="st9"/>
				<text x="8.5" y="512.54" class="st10">PK</text>			</g>
		</g>
		<g id="group1117-206" transform="translate(18.75,-297.404)">
			<title>Attribute.1117</title>
			<desc>PAON</desc>
			<g id="shape1117-207">
				<text x="34.02" y="508.24" class="st6">PAON</text>			</g>
			<g id="shape1118-210" transform="translate(4.25197,-4.29784)">
				<title>Sheet.1118</title>
				<desc>PK</desc>
			</g>
		</g>
		<g id="group1120-212" transform="translate(18.75,-143.783)">
			<title>Attribute.1120</title>
			<desc>County</desc>
			<g id="shape1120-213">
				<text x="34.02" y="508.24" class="st3">County</text>			</g>
			<g id="shape1121-216" transform="translate(4.25197,-4.29784)">
				<title>Sheet.1121</title>
				<desc>PK</desc>
			</g>
		</g>
		<g id="group1123-218" transform="translate(18.75,-271.801)">
			<title>Attribute.1123</title>
			<desc>SAON</desc>
			<g id="shape1123-219">
				<text x="34.02" y="508.24" class="st3">SAON</text>			</g>
			<g id="shape1124-222" transform="translate(4.25197,-4.29784)">
				<title>Sheet.1124</title>
				<desc>PK</desc>
			</g>
		</g>
		<g id="group1126-224" transform="translate(18.75,-246.197)">
			<title>Attribute.1126</title>
			<desc>Street</desc>
			<g id="shape1126-225">
				<text x="34.02" y="508.24" class="st6">Street</text>			</g>
			<g id="shape1127-228" transform="translate(4.25197,-4.29784)">
				<title>Sheet.1127</title>
				<desc>PK</desc>
			</g>
		</g>
		<g id="group1129-230" transform="translate(18.75,-169.386)">
			<title>Attribute.1129</title>
			<desc>District</desc>
			<g id="shape1129-231">
				<text x="34.02" y="508.24" class="st3">District</text>			</g>
			<g id="shape1130-234" transform="translate(4.25197,-4.29784)">
				<title>Sheet.1130</title>
				<desc>PK</desc>
			</g>
		</g>
		<g id="group1132-236" transform="translate(18.75,-194.99)">
			<title>Attribute.1132</title>
			<desc>Town</desc>
			<g id="shape1132-237">
				<text x="34.02" y="508.24" class="st3">Town</text>			</g>
			<g id="shape1133-240" transform="translate(4.25197,-4.29784)">
				<title>Sheet.1133</title>
				<desc>PK</desc>
			</g>
		</g>
		<g id="group1135-242" transform="translate(18.75,-220.593)">
			<title>Attribute.1135</title>
			<desc>Postcode</desc>
			<g id="shape1135-243">
				<text x="34.02" y="508.24" class="st3">Postcode</text>			</g>
			<g id="shape1136-246" transform="translate(4.25197,-4.29784)">
				<title>Sheet.1136</title>
				<desc>PK</desc>
			</g>
		</g>
		<g id="group1138-248" transform="translate(380.167,-260.6)">
			<title>Relationship.1034.1138</title>
			<g id="shape1138-249">
				<path d="M0 518.64 L-170.08 518.64 L-170.08 443.43 L-279.58 443.43" class="st8"/>
			</g>
		</g>
		<g id="shape1143-252" transform="translate(351.03,-259.32)">
			<title>Sheet.1143</title>
			<desc>0 . .*</desc>
			<rect x="0" y="504.467" width="29.1369" height="14.1732" class="st11"/>
			<text x="6.72" y="513.95" class="st3">0 . .*</text>		</g>
		<g id="shape1144-255" transform="translate(100.242,-337.273)">
			<title>Sheet.1144</title>
			<desc>1 .. 1</desc>
			<rect x="0" y="504.467" width="29.1369" height="14.1732" class="st11"/>
			<text x="6.69" y="513.95" class="st3">1 .. 1</text>		</g>
		<g id="shape1145-258" transform="translate(100.242,-296.013)">
			<title>Sheet.1145</title>
			<desc>A property price must have only one Address</desc>
			<rect x="0" y="484.467" width="102.76" height="34.1732" class="st11"/>
			<text x="6.91" y="499.15" class="st10">A property price <tspan class="st12">must </tspan>have <tspan x="23.29"
						dy="1.2em" class="st13">only </tspan><tspan class="st12">one</tspan> Address</text>		</g>
		<g id="shape1146-264" transform="translate(238.435,-230.973)">
			<title>Sheet.1146</title>
			<desc>An Address may be where many properties were sold</desc>
			<rect x="0" y="490.293" width="99.2126" height="28.3465" class="st11"/>
			<text x="6.99" y="502.07" class="st10">An Address <tspan class="st12">may</tspan> be where <tspan x="5.79" dy="1.2em"
						class="st12">many</tspan> properties were sold</text>		</g>
		<g id="group1147-269" transform="translate(762.845,-264.714)">
			<title>Entity.1147</title>
			<desc>Property Type Dim</desc>
			<g id="shape1148-270">
				<title>Sheet.1148</title>
				<rect x="0" y="410.648" width="85.0394" height="107.992" class="st1"/>
			</g>
			<g id="shape1149-272" transform="translate(0,-76.8107)">
				<title>Sheet.1149</title>
				<path d="M0 518.64 L85.04 518.64 L85.04 487.46 L0 487.46 L0 518.64 Z" class="st2"/>
			</g>
			<g id="shape1147-274">
				<text x="12.08" y="428.64" class="st3">Property Type Dim</text>			</g>
		</g>
		<g id="shape1151-276" transform="translate(762.845,-341.525)">
			<title>Primary Key Separator.1151</title>
			<path d="M0 518.64 L85.04 518.64 L0 518.64 Z" class="st4"/>
			<path d="M0 518.64 L85.04 518.64" class="st5"/>
		</g>
		<g id="group1152-279" transform="translate(762.845,-315.921)">
			<title>Attribute.1152</title>
			<desc>ID</desc>
			<g id="shape1152-280">
				<path d="M0 518.64 L85.04 518.64 L85.04 493.04 L0 493.04 L0 518.64 Z" class="st4"/>
				<text x="34.02" y="508.24" class="st6">ID</text>			</g>
			<g id="shape1153-284" transform="translate(4.25197,-4.29784)">
				<title>Sheet.1153</title>
				<desc>PK</desc>
				<path d="M1.7 516.12 L4.25 518.64 L6.17 516.75 L6.17 510.45 L7.44 510.45 L6.8 509.19 A4.2097 4.2097 -180 1 0 1.7
							 509.19 L1.06 510.45 L2.34 510.45 L2.34 511.08 L1.38 512.34 L2.98 513.6 L2.98 514.23 L1.7 515.49 L1.7
							 516.12 Z" class="st9"/>
				<text x="8.5" y="512.54" class="st10">PK</text>			</g>
		</g>
		<g id="group1155-288" transform="translate(762.845,-290.317)">
			<title>Attribute.1155</title>
			<desc>Type</desc>
			<g id="shape1155-289">
				<text x="34.02" y="508.24" class="st3">Type</text>			</g>
			<g id="shape1156-292" transform="translate(4.25197,-4.29784)">
				<title>Sheet.1156</title>
				<desc>PK</desc>
			</g>
		</g>
		<g id="group1158-294" transform="translate(762.845,-264.714)">
			<title>Attribute.1158</title>
			<desc>Description</desc>
			<g id="shape1158-295">
				<text x="34.02" y="508.24" class="st3">Description</text>			</g>
			<g id="shape1159-298" transform="translate(4.25197,-4.29784)">
				<title>Sheet.1159</title>
				<desc>PK</desc>
			</g>
		</g>
		<g id="group1161-300" transform="translate(493.553,-209.392)">
			<title>Relationship.1034.1161</title>
			<g id="shape1161-301">
				<path d="M0 518.64 L113.39 518.64 L113.39 399.31 L269.29 399.31" class="st8"/>
			</g>
		</g>
		<g id="shape1166-304" transform="translate(492.763,-209.714)">
			<title>Sheet.1166</title>
			<desc>0 . .*</desc>
			<rect x="0" y="504.467" width="29.1369" height="14.1732" class="st11"/>
			<text x="6.72" y="513.95" class="st3">0 . .*</text>		</g>
		<g id="shape1167-307" transform="translate(733.708,-330.186)">
			<title>Sheet.1167</title>
			<desc>0 .. 1</desc>
			<rect x="0" y="504.467" width="29.1369" height="14.1732" class="st11"/>
			<text x="6.69" y="513.95" class="st3">0 .. 1</text>		</g>
		<g id="shape1168-310" transform="translate(677.608,-294.753)">
			<title>Sheet.1168</title>
			<desc>A property price may have one property type</desc>
			<rect x="0" y="484.467" width="85.4346" height="34.1732" class="st11"/>
			<text x="8.23" y="499.15" class="st10">A property price <tspan class="st12">may </tspan><tspan x="4.4" dy="1.2em"
						class="st13">have </tspan><tspan class="st12">one</tspan> property type</text>		</g>
		<g id="shape1169-316" transform="translate(606.939,-209.714)">
			<title>Sheet.1169</title>
			<desc>A Property Type may classify many sold properties</desc>
			<rect x="0" y="490.293" width="77.9528" height="28.3465" class="st11"/>
			<text x="4.77" y="497.27" class="st10">A Property Type <tspan class="st12">may</tspan> <tspan x="9.6" dy="1.2em"
						class="st13">classify </tspan><tspan class="st12">many</tspan> sold <tspan x="22.07" dy="1.2em"
						class="st13">properties</tspan></text>		</g>
		<g id="group1170-323" transform="translate(720.325,-18.375)">
			<title>Entity.1170</title>
			<desc>Ownership Type Dim</desc>
			<g id="shape1171-324">
				<title>Sheet.1171</title>
				<rect x="0" y="410.648" width="85.0394" height="107.992" class="st1"/>
			</g>
			<g id="shape1172-326" transform="translate(0,-76.8107)">
				<title>Sheet.1172</title>
				<path d="M0 518.64 L85.04 518.64 L85.04 487.46 L0 487.46 L0 518.64 Z" class="st2"/>
			</g>
			<g id="shape1170-328">
				<text x="8.61" y="428.64" class="st3">Ownership Type Dim</text>			</g>
		</g>
		<g id="shape1174-330" transform="translate(720.325,-95.1857)">
			<title>Primary Key Separator.1174</title>
			<path d="M0 518.64 L85.04 518.64 L0 518.64 Z" class="st4"/>
			<path d="M0 518.64 L85.04 518.64" class="st5"/>
		</g>
		<g id="group1175-333" transform="translate(720.325,-69.5821)">
			<title>Attribute.1175</title>
			<desc>ID</desc>
			<g id="shape1175-334">
				<path d="M0 518.64 L85.04 518.64 L85.04 493.04 L0 493.04 L0 518.64 Z" class="st4"/>
				<text x="34.02" y="508.24" class="st6">ID</text>			</g>
			<g id="shape1176-338" transform="translate(4.25197,-4.29784)">
				<title>Sheet.1176</title>
				<desc>PK</desc>
				<path d="M1.7 516.12 L4.25 518.64 L6.17 516.75 L6.17 510.45 L7.44 510.45 L6.8 509.19 A4.2097 4.2097 -180 1 0 1.7
							 509.19 L1.06 510.45 L2.34 510.45 L2.34 511.08 L1.38 512.34 L2.98 513.6 L2.98 514.23 L1.7 515.49 L1.7
							 516.12 Z" class="st9"/>
				<text x="8.5" y="512.54" class="st10">PK</text>			</g>
		</g>
		<g id="group1178-342" transform="translate(720.325,-43.9786)">
			<title>Attribute.1178</title>
			<desc>Type</desc>
			<g id="shape1178-343">
				<text x="34.02" y="508.24" class="st3">Type</text>			</g>
			<g id="shape1179-346" transform="translate(4.25197,-4.29784)">
				<title>Sheet.1179</title>
				<desc>PK</desc>
			</g>
		</g>
		<g id="group1181-348" transform="translate(720.325,-18.375)">
			<title>Attribute.1181</title>
			<desc>Description</desc>
			<g id="shape1181-349">
				<text x="34.02" y="508.24" class="st3">Description</text>			</g>
			<g id="shape1182-352" transform="translate(4.25197,-4.29784)">
				<title>Sheet.1182</title>
				<desc>PK</desc>
			</g>
		</g>
		<g id="group1184-354" transform="translate(493.553,-183.789)">
			<title>Relationship.1034.1184</title>
			<g id="shape1184-355">
				<path d="M0 518.64 L170.08 518.64 L170.08 620.04 L226.77 620.04" class="st8"/>
			</g>
		</g>
		<g id="shape1189-358" transform="translate(691.978,-82.1545)">
			<title>Sheet.1189</title>
			<desc>0 .. 1</desc>
			<rect x="0" y="504.467" width="29.1369" height="14.1732" class="st11"/>
			<text x="6.69" y="513.95" class="st3">0 .. 1</text>		</g>
		<g id="shape1190-361" transform="translate(493.553,-184.339)">
			<title>Sheet.1190</title>
			<desc>0 . .*</desc>
			<rect x="0" y="504.467" width="29.1369" height="14.1732" class="st11"/>
			<text x="6.72" y="513.95" class="st3">0 . .*</text>		</g>
		<g id="shape1191-364" transform="translate(634.89,-40.8947)">
			<title>Sheet.1191</title>
			<desc>A property price may have one ownership type</desc>
			<rect x="0" y="484.467" width="85.4346" height="34.1732" class="st11"/>
			<text x="8.23" y="494.35" class="st10">A property price <tspan class="st12">may </tspan><tspan x="9.64" dy="1.2em"
						class="st13">have </tspan><tspan class="st12">one</tspan> ownership <tspan x="35.48" dy="1.2em"
						class="st13">type</tspan></text>		</g>
		<g id="shape1192-371" transform="translate(507.726,-149.134)">
			<title>Sheet.1192</title>
			<desc>An Ownership Type may classify many sold properties</desc>
			<rect x="0" y="490.293" width="77.9528" height="28.3465" class="st11"/>
			<text x="7.22" y="497.27" class="st10">An Ownership Type <tspan x="9.17" dy="1.2em" class="st12">may</tspan> classify <tspan
						class="st12">many</tspan> <tspan x="14.47" dy="1.2em" class="st13">sold properties</tspan></text>		</g>
		<g id="group1193-377" transform="translate(139.222,-21.0261)">
			<title>Entity.1193</title>
			<desc>New Build Dim</desc>
			<g id="shape1194-378">
				<title>Sheet.1194</title>
				<rect x="0" y="436.252" width="99.2126" height="82.3882" class="st1"/>
			</g>
			<g id="shape1195-380" transform="translate(0,-51.2071)">
				<title>Sheet.1195</title>
				<path d="M0 518.64 L99.21 518.64 L99.21 487.46 L0 487.46 L0 518.64 Z" class="st2"/>
			</g>
			<g id="shape1193-382">
				<text x="25.58" y="454.24" class="st3">New Build Dim</text>			</g>
		</g>
		<g id="shape1197-384" transform="translate(139.222,-72.2333)">
			<title>Primary Key Separator.1197</title>
			<path d="M0 518.64 L99.21 518.64 L0 518.64 Z" class="st4"/>
			<path d="M0 518.64 L99.21 518.64" class="st5"/>
		</g>
		<g id="group1198-387" transform="translate(139.222,-46.6297)">
			<title>Attribute.1198</title>
			<desc>ID</desc>
			<g id="shape1198-388">
				<path d="M0 518.64 L99.21 518.64 L99.21 493.04 L0 493.04 L0 518.64 Z" class="st4"/>
				<text x="34.02" y="508.24" class="st6">ID</text>			</g>
			<g id="shape1199-392" transform="translate(4.25197,-4.29784)">
				<title>Sheet.1199</title>
				<desc>PK</desc>
				<path d="M1.7 516.12 L4.25 518.64 L6.17 516.75 L6.17 510.45 L7.44 510.45 L6.8 509.19 A4.2097 4.2097 -180 1 0 1.7
							 509.19 L1.06 510.45 L2.34 510.45 L2.34 511.08 L1.38 512.34 L2.98 513.6 L2.98 514.23 L1.7 515.49 L1.7
							 516.12 Z" class="st9"/>
				<text x="8.5" y="512.54" class="st10">PK</text>			</g>
		</g>
		<g id="group1201-396" transform="translate(139.222,-21.0261)">
			<title>Attribute.1201</title>
			<desc>New Build Flag</desc>
			<g id="shape1201-397">
				<text x="34.02" y="508.24" class="st3">New Build Flag</text>			</g>
			<g id="shape1202-400" transform="translate(4.25197,-4.29784)">
				<title>Sheet.1202</title>
				<desc>PK</desc>
			</g>
		</g>
		<g id="group1204-402" transform="translate(238.435,-62.2203)">
			<title>Relationship.1034.1204</title>
			<g id="shape1204-403">
				<path d="M0 518.64 L85.04 518.64 L85.04 422.67 L141.73 422.67" class="st8"/>
			</g>
		</g>
		<g id="shape1209-406" transform="translate(351.03,-160.107)">
			<title>Sheet.1209</title>
			<desc>0 . .*</desc>
			<rect x="0" y="504.467" width="29.1369" height="14.1732" class="st11"/>
			<text x="6.72" y="513.95" class="st3">0 . .*</text>		</g>
		<g id="shape1210-409" transform="translate(238.435,-63.6379)">
			<title>Sheet.1210</title>
			<desc>0 .. 1</desc>
			<rect x="0" y="504.467" width="29.1369" height="14.1732" class="st11"/>
			<text x="6.69" y="513.95" class="st3">0 .. 1</text>		</g>
		<g id="shape1211-412" transform="translate(245.522,-22.5482)">
			<title>Sheet.1211</title>
			<desc>A property price may be for a new build</desc>
			<rect x="0" y="484.467" width="85.4346" height="34.1732" class="st11"/>
			<text x="8.23" y="499.15" class="st10">A property price <tspan class="st12">may </tspan><tspan x="13.22" dy="1.2em"
						class="st13">be for </tspan><tspan class="st12">a </tspan>new build</text>		</g>
		<g id="shape1212-418" transform="translate(273.868,-160.107)">
			<title>Sheet.1212</title>
			<desc>Many new build properties may have been sold</desc>
			<rect x="0" y="490.293" width="77.9528" height="28.3465" class="st11"/>
			<text x="12.56" y="497.27" class="st14">Many<tspan class="st15"> </tspan><tspan class="st15">new build </tspan><tspan
						x="5.33" dy="1.2em" class="st15">properties </tspan>may<tspan class="st15"> </tspan><tspan class="st15">have </tspan><tspan
						x="23.2" dy="1.2em" class="st15">been sold </tspan></text>		</g>
	</g>
</svg>
