<?xml version="1.0" encoding="UTF-8" standalone="no"?>
<!DOCTYPE svg PUBLIC "-//W3C//DTD SVG 1.1//EN" "http://www.w3.org/Graphics/SVG/1.1/DTD/svg11.dtd">
<!-- Generated by Microsoft Visio, SVG Export acquisition-Logical.svg Acquisition-Component -->
<svg xmlns="http://www.w3.org/2000/svg" xmlns:xlink="http://www.w3.org/1999/xlink" xmlns:ev="http://www.w3.org/2001/xml-events"
		width="4.83758in" height="4.83404in" viewBox="0 0 348.306 348.051" xml:space="preserve" color-interpolation-filters="sRGB"
		class="st11">
	<title>Component Design</title>

	<style type="text/css">
	<![CDATA[
		.st1 {fill:none;stroke:#000000;stroke-linecap:round;stroke-linejoin:round;stroke-width:0.24}
		.st2 {fill:none;stroke:#000000;stroke-linecap:round;stroke-linejoin:round;stroke-width:1}
		.st3 {fill:none;stroke:none;stroke-linecap:round;stroke-linejoin:round;stroke-width:0.75}
		.st4 {fill:#000000;font-family:Calibri;font-size:0.666664em}
		.st5 {font-size:1em}
		.st6 {fill:#7f7f7f;stroke:#000000;stroke-linecap:round;stroke-linejoin:round;stroke-width:0.24}
		.st7 {fill:#ffffff;font-family:Calibri;font-size:0.499992em}
		.st8 {marker-end:url(#mrkr5-54);marker-start:url(#mrkr5-52);stroke:#000000;stroke-linecap:round;stroke-linejoin:round;stroke-width:0.239976}
		.st9 {fill:#000000;fill-opacity:1;stroke:#000000;stroke-opacity:1;stroke-width:0.086948582161584}
		.st10 {marker-end:url(#mrkr5-54);stroke:#000000;stroke-linecap:round;stroke-linejoin:round;stroke-width:0.239976}
		.st11 {fill:none;fill-rule:evenodd;font-size:12px;overflow:visible;stroke-linecap:square;stroke-miterlimit:3}
	]]>
	</style>

	<defs id="Markers">
		<g id="lend5">
			<path d="M 2 1 L 0 0 L 1.98117 -0.993387 C 1.67173 -0.364515 1.67301 0.372641 1.98465 1.00043 " style="stroke:none"/>
		</g>
		<marker id="mrkr5-52" class="st9" refX="18.626687668767" orient="auto" markerUnits="strokeWidth" overflow="visible">
			<use xlink:href="#lend5" transform="scale(11.501050105011) "/>
		</marker>
		<marker id="mrkr5-54" class="st9" refX="-20.126837683768" orient="auto" markerUnits="strokeWidth" overflow="visible">
			<use xlink:href="#lend5" transform="scale(-11.501050105011,-11.501050105011) "/>
		</marker>
	</defs>
	<g>
		<title>Acquisition-Logical</title>
		<g id="shape1015-1" transform="translate(18.12,-18.12)">
			<title>Rectangle.1015</title>
			<rect x="0" y="36.24" width="311.811" height="311.811" class="st1"/>
		</g>
		<g id="shape1000-3" transform="translate(74.8129,-244.892)">
			<title>Rectangle.1000</title>
			<rect x="0" y="291.358" width="198.425" height="56.6929" class="st2"/>
		</g>
		<g id="shape1001-5" transform="translate(74.8129,-145.679)">
			<title>Rectangle.1001</title>
			<rect x="0" y="291.358" width="198.425" height="56.6929" class="st2"/>
		</g>
		<g id="shape1002-7" transform="translate(74.8129,-46.4665)">
			<title>Rectangle.1002</title>
			<rect x="0" y="291.358" width="198.425" height="56.6929" class="st2"/>
		</g>
		<g id="shape1003-9" transform="translate(36.1987,-266.152)">
			<title>Sheet.1003</title>
			<desc>External Data Sources</desc>
			<rect x="0" y="312.618" width="38.6142" height="35.4331" class="st3"/>
			<text x="4" y="323.13" class="st4">External <tspan x="4" dy="1.2em" class="st5">Data </tspan><tspan x="4" dy="1.2em"
						class="st5">Sources</tspan></text>		</g>
		<g id="shape1004-14" transform="translate(273.238,-174.026)">
			<title>Sheet.1004</title>
			<desc>Data Acquisition</desc>
			<rect x="0" y="319.705" width="56.6929" height="28.3465" class="st3"/>
			<text x="4" y="331.48" class="st4">Data <tspan x="4" dy="1.2em" class="st5">Acquisition</tspan></text>		</g>
		<g id="shape1005-18" transform="translate(36.1987,-60.6397)">
			<title>Sheet.1005</title>
			<desc>App Data Storage</desc>
			<rect x="0" y="305.531" width="38.6142" height="42.5197" class="st3"/>
			<text x="4" y="319.59" class="st4">App <tspan x="4" dy="1.2em" class="st5">Data </tspan><tspan x="4" dy="1.2em"
						class="st5">Storage</tspan></text>		</g>
		<g id="shape1006-23" transform="translate(88.9861,-259.065)">
			<title>Rounded Rectangle.1006</title>
			<desc>Elexon SAA</desc>
			<path d="M4.25 348.05 L38.27 348.05 A4.2519 4.2519 -180 0 0 42.52 343.8 L42.52 323.96 A4.2519 4.2519 -180 0 0 38.27 319.7
						 L4.25 319.7 A4.2519 4.2519 -180 0 0 -0 323.96 L0 343.8 A4.2519 4.2519 -180 0 0 4.25 348.05 Z" class="st6"/>
			<text x="13.16" y="332.08" class="st7">Elexon <tspan x="16.41" dy="1.2em" class="st5">SAA</tspan></text>		</g>
		<g id="shape1007-27" transform="translate(88.9861,-159.852)">
			<title>Rounded Rectangle.1007</title>
			<desc>API (GET)</desc>
			<path d="M4.25 348.05 L38.27 348.05 A4.2519 4.2519 -180 0 0 42.52 343.8 L42.52 323.96 A4.2519 4.2519 -180 0 0 38.27 319.7
						 L4.25 319.7 A4.2519 4.2519 -180 0 0 -0 323.96 L0 343.8 A4.2519 4.2519 -180 0 0 4.25 348.05 Z" class="st6"/>
			<text x="17.22" y="332.08" class="st7">API <tspan x="14.62" dy="1.2em" class="st5">(GET)</tspan></text>		</g>
		<g id="shape1008-31" transform="translate(152.766,-159.852)">
			<title>Rounded Rectangle.1008</title>
			<desc>Orchestration &#38; Validation</desc>
			<path d="M4.25 348.05 L38.27 348.05 A4.2519 4.2519 -180 0 0 42.52 343.8 L42.52 323.96 A4.2519 4.2519 -180 0 0 38.27 319.7
						 L4.25 319.7 A4.2519 4.2519 -180 0 0 -0 323.96 L0 343.8 A4.2519 4.2519 -180 0 0 4.25 348.05 Z" class="st6"/>
			<text x="4.38" y="328.48" class="st7">Orchestration <tspan x="19.21" dy="1.2em" class="st5">&#38; </tspan><tspan
						x="8.88" dy="1.2em" class="st5">Validation</tspan></text>		</g>
		<g id="shape1009-36" transform="translate(216.545,-159.852)">
			<title>Rounded Rectangle.1009</title>
			<desc>Persist Files</desc>
			<path d="M4.25 348.05 L38.27 348.05 A4.2519 4.2519 -180 0 0 42.52 343.8 L42.52 323.96 A4.2519 4.2519 -180 0 0 38.27 319.7
						 L4.25 319.7 A4.2519 4.2519 -180 0 0 -0 323.96 L0 343.8 A4.2519 4.2519 -180 0 0 4.25 348.05 Z" class="st6"/>
			<text x="13.13" y="332.08" class="st7">Persist <tspan x="15.84" dy="1.2em" class="st5">Files</tspan></text>		</g>
		<g id="shape1010-40" transform="translate(216.545,-60.6397)">
			<title>Rounded Rectangle.1010</title>
			<desc>Blob</desc>
			<path d="M4.25 348.05 L38.27 348.05 A4.2519 4.2519 -180 0 0 42.52 343.8 L42.52 323.96 A4.2519 4.2519 -180 0 0 38.27 319.7
						 L4.25 319.7 A4.2519 4.2519 -180 0 0 -0 323.96 L0 343.8 A4.2519 4.2519 -180 0 0 4.25 348.05 Z" class="st6"/>
			<text x="15.78" y="335.68" class="st7">Blob</text>		</g>
		<g id="shape1011-43" transform="translate(152.766,-60.6397)">
			<title>Rounded Rectangle.1011</title>
			<desc>Configuration</desc>
			<path d="M4.25 348.05 L38.27 348.05 A4.2519 4.2519 -180 0 0 42.52 343.8 L42.52 323.96 A4.2519 4.2519 -180 0 0 38.27 319.7
						 L4.25 319.7 A4.2519 4.2519 -180 0 0 -0 323.96 L0 343.8 A4.2519 4.2519 -180 0 0 4.25 348.05 Z" class="st6"/>
			<text x="4.58" y="335.68" class="st7">Configuration</text>		</g>
		<g id="shape1012-46" transform="translate(110.246,-188.199)">
			<title>Bottom to top 1.1012</title>
			<path d="M0 281.65 L0 282.01 L0 312.62 L0 343.22" class="st8"/>
		</g>
		<g id="shape1013-55" transform="translate(174.026,-88.9861)">
			<title>Bottom to top 1.1013</title>
			<path d="M0 281.65 L0 282.01 L0 312.62 L0 343.22" class="st8"/>
		</g>
		<g id="shape1014-62" transform="translate(237.805,-88.9861)">
			<title>Bottom to top 1.1014</title>
			<path d="M0 277.18 L0 312.62 L0 343.22" class="st10"/>
		</g>
	</g>
</svg>
