<?xml version="1.0" encoding="UTF-8" standalone="no"?>
<!DOCTYPE svg PUBLIC "-//W3C//DTD SVG 1.1//EN" "http://www.w3.org/Graphics/SVG/1.1/DTD/svg11.dtd">
<!-- Generated by Microsoft Visio, SVG Export acquisition-Sequence.svg Acquisition-Sequence -->
<svg xmlns="http://www.w3.org/2000/svg" xmlns:xlink="http://www.w3.org/1999/xlink" xmlns:ev="http://www.w3.org/2001/xml-events"
		width="7.78694in" height="7.3092in" viewBox="0 0 560.659 526.263" xml:space="preserve" color-interpolation-filters="sRGB"
		class="st14">
	<title>Component Design</title>

	<style type="text/css">
	<![CDATA[
		.st1 {fill:#d8d8d8;stroke:#000000;stroke-linecap:round;stroke-linejoin:round;stroke-width:0.75}
		.st2 {stroke:#000000;stroke-dasharray:5.25,3.75;stroke-linecap:round;stroke-linejoin:round;stroke-width:0.75}
		.st3 {fill:#000000;font-family:Calibri;font-size:0.499992em;font-weight:bold}
		.st4 {font-size:1em}
		.st5 {fill:#ffffff;stroke:#000000;stroke-linecap:round;stroke-linejoin:round;stroke-width:0.75}
		.st6 {marker-end:url(#mrkr4-78);stroke:#000000;stroke-linecap:round;stroke-linejoin:round;stroke-width:0.239976}
		.st7 {fill:#000000;fill-opacity:1;stroke:#000000;stroke-opacity:1;stroke-width:0.068959096269629}
		.st8 {fill:none;stroke:none;stroke-linecap:round;stroke-linejoin:round;stroke-width:0.75}
		.st9 {fill:#000000;font-family:Calibri;font-size:0.499992em}
		.st10 {marker-end:url(#mrkr3-100);stroke:#000000;stroke-dasharray:1.67983,1.19988;stroke-linecap:round;stroke-linejoin:round;stroke-width:0.239976}
		.st11 {fill:#ffffff;fill-opacity:0;stroke:#923931;stroke-linecap:round;stroke-linejoin:round;stroke-width:0.25}
		.st12 {fill:#ffffff;stroke:#923931;stroke-linecap:round;stroke-linejoin:round;stroke-width:0.25}
		.st13 {fill:#923931;font-family:Calibri;font-size:0.499992em}
		.st14 {fill:none;fill-rule:evenodd;font-size:12px;overflow:visible;stroke-linecap:square;stroke-miterlimit:3}
	]]>
	</style>

	<defs id="Markers">
		<g id="lend4">
			<path d="M 2 1 L 0 0 L 2 -1 L 2 1 " style="stroke:none"/>
		</g>
		<marker id="mrkr4-78" class="st7" refX="-29.002700270027" orient="auto" markerUnits="strokeWidth" overflow="visible">
			<use xlink:href="#lend4" transform="scale(-14.501350135013,-14.501350135013) "/>
		</marker>
		<g id="lend3">
			<path d="M 2 1 L 0 0 L 2 -1 " style="stroke-linecap:round;stroke-linejoin:round;fill:none"/>
		</g>
		<marker id="mrkr3-100" class="st7" orient="auto" markerUnits="strokeWidth" overflow="visible">
			<use xlink:href="#lend3" transform="scale(-14.501350135013,-14.501350135013) "/>
		</marker>
	</defs>
	<g>
		<title>Acquisition-Sequence</title>
		<g id="group1000-1" transform="translate(57.5266,-475.998)">
			<title>Object lifeline.1000</title>
			<desc>Timer Trigger Function</desc>
			<g id="shape1001-2" transform="translate(2.83465,-1.41732)">
				<title>Sheet.1001</title>
				<rect x="0" y="500.751" width="51.0236" height="25.5118" class="st1"/>
			</g>
			<g id="shape1002-4" transform="translate(19.8425,-31.8898)">
				<title>Sheet.1002</title>
				<path d="M8.5 526.26 a0 0 0 1 1 0 0 a0 0 0 1 1 0 0 Z" class="st1"/>
			</g>
			<g id="shape1003-6" transform="translate(18.8976,457.998)">
				<title>Sheet.1003</title>
			</g>
			<g id="shape1004-8" transform="translate(554.609,526.263) rotate(90)">
				<title>Sheet.1004</title>
				<path d="M0 526.26 L439.37 526.26" class="st2"/>
			</g>
			<g id="shape1000-11">
				<rect x="0" y="497.916" width="56.6929" height="28.3465" class="st1"/>
				<text x="11.72" y="510.29" class="st3">Timer Trigger <tspan x="17.5" dy="1.2em" class="st4">Function</tspan></text>			</g>
		</g>
		<g id="group1005-15" transform="translate(142.566,-475.998)">
			<title>Object lifeline.1005</title>
			<desc>Table Storage</desc>
			<g id="shape1006-16" transform="translate(2.83465,-1.41732)">
				<title>Sheet.1006</title>
				<rect x="0" y="500.751" width="51.0236" height="25.5118" class="st1"/>
			</g>
			<g id="shape1007-18" transform="translate(19.8425,-31.8898)">
				<title>Sheet.1007</title>
				<path d="M8.5 526.26 a0 0 0 1 1 0 0 a0 0 0 1 1 0 0 Z" class="st1"/>
			</g>
			<g id="shape1008-20" transform="translate(18.8976,457.998)">
				<title>Sheet.1008</title>
			</g>
			<g id="shape1009-22" transform="translate(554.609,526.263) rotate(90)">
				<title>Sheet.1009</title>
				<path d="M0 526.26 L439.37 526.26" class="st2"/>
			</g>
			<g id="shape1005-25">
				<rect x="0" y="497.916" width="56.6929" height="28.3465" class="st1"/>
				<text x="11.29" y="513.89" class="st3">Table Storage</text>			</g>
		</g>
		<g id="group1010-28" transform="translate(227.605,-475.998)">
			<title>Object lifeline.1010</title>
			<desc>Storage Queue</desc>
			<g id="shape1011-29" transform="translate(2.83465,-1.41732)">
				<title>Sheet.1011</title>
				<rect x="0" y="500.751" width="51.0236" height="25.5118" class="st1"/>
			</g>
			<g id="shape1012-31" transform="translate(19.8425,-31.8898)">
				<title>Sheet.1012</title>
				<path d="M8.5 526.26 a0 0 0 1 1 0 0 a0 0 0 1 1 0 0 Z" class="st1"/>
			</g>
			<g id="shape1013-33" transform="translate(18.8976,457.998)">
				<title>Sheet.1013</title>
			</g>
			<g id="shape1014-35" transform="translate(554.609,526.263) rotate(90)">
				<title>Sheet.1014</title>
				<path d="M0 526.26 L439.37 526.26" class="st2"/>
			</g>
			<g id="shape1010-38">
				<rect x="0" y="497.916" width="56.6929" height="28.3465" class="st1"/>
				<text x="9.82" y="513.89" class="st3">Storage Queue</text>			</g>
		</g>
		<g id="group1015-41" transform="translate(312.645,-475.998)">
			<title>Object lifeline.1015</title>
			<desc>Queue Trigger Function</desc>
			<g id="shape1016-42" transform="translate(2.83465,-1.41732)">
				<title>Sheet.1016</title>
				<rect x="0" y="500.751" width="51.0236" height="25.5118" class="st1"/>
			</g>
			<g id="shape1017-44" transform="translate(19.8425,-31.8898)">
				<title>Sheet.1017</title>
				<path d="M8.5 526.26 a0 0 0 1 1 0 0 a0 0 0 1 1 0 0 Z" class="st1"/>
			</g>
			<g id="shape1018-46" transform="translate(18.8976,457.998)">
				<title>Sheet.1018</title>
			</g>
			<g id="shape1019-48" transform="translate(554.609,526.263) rotate(90)">
				<title>Sheet.1019</title>
				<path d="M0 526.26 L439.37 526.26" class="st2"/>
			</g>
			<g id="shape1015-51">
				<rect x="0" y="497.916" width="56.6929" height="28.3465" class="st1"/>
				<text x="10.66" y="510.29" class="st3">Queue Trigger <tspan x="17.5" dy="1.2em" class="st4">Function</tspan></text>			</g>
		</g>
		<g id="group1020-55" transform="translate(397.684,-475.998)">
			<title>Object lifeline.1020</title>
			<desc>Elexon SAA (API)</desc>
			<g id="shape1021-56" transform="translate(2.83465,-1.41732)">
				<title>Sheet.1021</title>
				<rect x="0" y="500.751" width="51.0236" height="25.5118" class="st5"/>
			</g>
			<g id="shape1022-58" transform="translate(19.8425,-31.8898)">
				<title>Sheet.1022</title>
				<path d="M8.5 526.26 a0 0 0 1 1 0 0 a0 0 0 1 1 0 0 Z" class="st5"/>
			</g>
			<g id="shape1023-60" transform="translate(18.8976,457.998)">
				<title>Sheet.1023</title>
			</g>
			<g id="shape1024-62" transform="translate(554.609,526.263) rotate(90)">
				<title>Sheet.1024</title>
				<path d="M0 526.26 L439.37 526.26" class="st2"/>
			</g>
			<g id="shape1020-65">
				<rect x="0" y="497.916" width="56.6929" height="28.3465" class="st5"/>
				<text x="14.3" y="510.29" class="st3">Elexon SAA <tspan x="22.26" dy="1.2em" class="st4">(API)</tspan></text>			</g>
		</g>
		<g id="shape1025-69" transform="translate(-436.138,266.265) rotate(-90)">
			<title>Activation.1025</title>
			<rect x="0" y="517.759" width="198" height="8.50394" class="st1"/>
		</g>
		<g id="shape1026-71" transform="translate(-351.098,122.265) rotate(-90)">
			<title>Activation.1026</title>
			<rect x="0" y="517.759" width="54" height="8.50394" class="st1"/>
		</g>
		<g id="shape1027-73" transform="translate(90.125,-432.911)">
			<title>Message.1027</title>
			<path d="M0 519.18 L69.58 519.18" class="st6"/>
		</g>
		<g id="shape1028-79" transform="translate(92.9597,-426.391)">
			<title>Sheet.1028</title>
			<desc>Get next settlement date</desc>
			<rect x="0" y="519.176" width="74.5512" height="7.08661" class="st8"/>
			<text x="6.64" y="524.52" class="st9">Get next settlement date</text>		</g>
		<g id="group1029-82" transform="translate(482.723,-475.998)">
			<title>Object lifeline.1029</title>
			<desc>Blob Storage</desc>
			<g id="shape1030-83" transform="translate(2.83465,-1.41732)">
				<title>Sheet.1030</title>
				<rect x="0" y="500.751" width="51.0236" height="25.5118" class="st1"/>
			</g>
			<g id="shape1031-85" transform="translate(19.8425,-31.8898)">
				<title>Sheet.1031</title>
				<path d="M8.5 526.26 a0 0 0 1 1 0 0 a0 0 0 1 1 0 0 Z" class="st1"/>
			</g>
			<g id="shape1032-87" transform="translate(18.8976,457.998)">
				<title>Sheet.1032</title>
			</g>
			<g id="shape1033-89" transform="translate(554.609,526.263) rotate(90)">
				<title>Sheet.1033</title>
				<path d="M0 526.26 L439.37 526.26" class="st2"/>
			</g>
			<g id="shape1029-92">
				<rect x="0" y="497.916" width="56.6929" height="28.3465" class="st1"/>
				<text x="12.48" y="513.89" class="st3">Blob Storage</text>			</g>
		</g>
		<g id="shape1034-95" transform="translate(166.66,-414.911)">
			<title>Return Message.1034</title>
			<path d="M0 519.18 L-76.54 519.18" class="st10"/>
		</g>
		<g id="shape1035-101" transform="translate(-95.98,176.265) rotate(-90)">
			<title>Activation.1035</title>
			<rect x="0" y="517.759" width="54" height="8.50394" class="st5"/>
		</g>
		<g id="shape1036-103" transform="translate(90.125,-378.911)">
			<title>Message.1036</title>
			<path d="M0 519.18 L324.69 519.18" class="st6"/>
		</g>
		<g id="shape1037-108" transform="translate(379.542,-373.242)">
			<title>Sheet.1037</title>
			<desc>Get File List</desc>
			<rect x="0" y="519.176" width="42.5197" height="7.08661" class="st8"/>
			<text x="7.14" y="524.52" class="st9">Get File List</text>		</g>
		<g id="shape1038-111" transform="translate(421.779,-360.911)">
			<title>Return Message.1038</title>
			<path d="M0 519.18 L-331.65 519.18" class="st10"/>
		</g>
		<g id="shape1039-116" transform="translate(-266.059,230.265) rotate(-90)">
			<title>Activation.1039</title>
			<rect x="0" y="517.759" width="36" height="8.50394" class="st1"/>
		</g>
		<g id="shape1040-118" transform="translate(90.125,-306.911)">
			<title>Message.1040</title>
			<path d="M0 519.18 L154.61 519.18" class="st6"/>
		</g>
		<g id="group1041-123" transform="translate(18.125,-305.919)">
			<title>Loop fragment.1041</title>
			<g id="shape1041-124">
				<rect x="0" y="497.916" width="273.26" height="28.3465" class="st11"/>
			</g>
			<g id="shape1042-126" transform="translate(0,-13.143)">
				<title>Sheet.1042</title>
				<desc>For Each File</desc>
				<path d="M0 526.26 L40.91 526.26 L48 519.18 L48 511.06 L0 511.06 L0 526.26 Z" class="st12"/>
				<text x="4" y="520.46" class="st13">For Each File</text>			</g>
		</g>
		<g id="shape1043-129" transform="translate(92.9597,-320.092)">
			<title>Sheet.1043</title>
			<desc>Enqueue File URL</desc>
			<rect x="0" y="519.176" width="56.126" height="7.08661" class="st8"/>
			<text x="6.89" y="524.52" class="st9">Enqueue File URL</text>		</g>
		<g id="shape1044-132" transform="translate(-351.098,266.265) rotate(-90)">
			<title>Activation.1044</title>
			<rect x="0" y="517.759" width="36" height="8.50394" class="st1"/>
		</g>
		<g id="shape1045-134" transform="translate(90.125,-270.911)">
			<title>Message.1045</title>
			<path d="M0 519.18 L69.58 519.18" class="st6"/>
		</g>
		<g id="shape1046-139" transform="translate(91.1171,-284.659)">
			<title>Sheet.1046</title>
			<desc>Increment settlement date</desc>
			<rect x="0" y="519.176" width="74.5512" height="7.08661" class="st8"/>
			<text x="4.47" y="524.52" class="st9">Increment settlement date</text>		</g>
		<g id="group1047-142" transform="translate(18.125,-64.9741)">
			<title>Loop fragment.1047</title>
			<g id="shape1047-143">
				<rect x="0" y="342.011" width="524.409" height="184.252" class="st11"/>
			</g>
			<g id="shape1048-145" transform="translate(0,-169.048)">
				<title>Sheet.1048</title>
				<desc>For Each File</desc>
				<path d="M0 526.26 L40.91 526.26 L48 519.18 L48 511.06 L0 511.06 L0 526.26 Z" class="st12"/>
				<text x="4" y="520.46" class="st13">For Each File</text>			</g>
		</g>
		<g id="shape1049-148" transform="translate(-266.059,320.265) rotate(-90)">
			<title>Activation.1049</title>
			<rect x="0" y="517.759" width="36" height="8.50394" class="st1"/>
		</g>
		<g id="shape1050-150" transform="translate(-181.019,446.265) rotate(-90)">
			<title>Activation.1050</title>
			<rect x="0" y="517.759" width="162" height="8.50394" class="st1"/>
		</g>
		<g id="shape1051-152" transform="translate(260.204,-216.911)">
			<title>Message.1051</title>
			<path d="M0 519.18 L69.58 519.18" class="st6"/>
		</g>
		<g id="shape1052-157" transform="translate(259.07,-227.966)">
			<title>Sheet.1052</title>
			<desc>Dequeue File URL</desc>
			<rect x="0" y="519.176" width="60.6614" height="7.08661" class="st8"/>
			<text x="8.86" y="524.52" class="st9">Dequeue File URL</text>		</g>
		<g id="shape1053-160" transform="translate(-95.98,392.265) rotate(-90)">
			<title>Activation.1053</title>
			<rect x="0" y="517.759" width="54" height="8.50394" class="st5"/>
		</g>
		<g id="shape1054-162" transform="translate(345.243,-162.911)">
			<title>Message.1054</title>
			<path d="M0 519.18 L69.58 519.18" class="st6"/>
		</g>
		<g id="shape1055-167" transform="translate(383.794,-157.1)">
			<title>Sheet.1055</title>
			<desc>Get A File</desc>
			<rect x="0" y="519.176" width="38.2677" height="7.08661" class="st8"/>
			<text x="7.4" y="524.52" class="st9">Get A File</text>		</g>
		<g id="shape1056-170" transform="translate(421.779,-144.911)">
			<title>Return Message.1056</title>
			<path d="M0 519.18 L-76.54 519.18" class="st10"/>
		</g>
		<g id="shape1057-175" transform="translate(-351.098,356.265) rotate(-90)">
			<title>Activation.1057</title>
			<rect x="0" y="517.759" width="36" height="8.50394" class="st1"/>
		</g>
		<g id="shape1058-177" transform="translate(336.739,-180.911)">
			<title>Message.1058</title>
			<path d="M0 519.18 L-154.61 519.18" class="st6"/>
		</g>
		<g id="shape1059-182" transform="translate(298.755,-192.533)">
			<title>Sheet.1059</title>
			<desc>Log Start</desc>
			<rect x="0" y="519.176" width="38.2677" height="7.08661" class="st8"/>
			<text x="8.33" y="524.52" class="st9">Log Start</text>		</g>
		<g id="shape1060-185" transform="translate(-10.9407,428.265) rotate(-90)">
			<title>Activation.1060</title>
			<rect x="0" y="517.759" width="36" height="8.50394" class="st1"/>
		</g>
		<g id="shape1061-187" transform="translate(345.243,-108.911)">
			<title>Message.1061</title>
			<path d="M0 519.18 L154.61 519.18" class="st6"/>
		</g>
		<g id="shape1062-192" transform="translate(347.653,-121.667)">
			<title>Sheet.1062</title>
			<desc>Save File</desc>
			<rect x="0" y="519.176" width="38.9764" height="7.08661" class="st8"/>
			<text x="8.9" y="524.52" class="st9">Save File</text>		</g>
		<g id="shape1063-195" transform="translate(-351.098,446.265) rotate(-90)">
			<title>Activation.1063</title>
			<rect x="0" y="517.759" width="36" height="8.50394" class="st1"/>
		</g>
		<g id="shape1064-197" transform="translate(336.739,-105.084)">
			<title>Message.1064</title>
			<path d="M0 533.35 L-154.61 533.35" class="st6"/>
		</g>
		<g id="shape1065-202" transform="translate(296.629,-100.407)">
			<title>Sheet.1065</title>
			<desc>Log End</desc>
			<rect x="0" y="519.176" width="38.2677" height="7.08661" class="st8"/>
			<text x="9.58" y="524.52" class="st9">Log End</text>		</g>
	</g>
</svg>
