<?xml version="1.0" encoding="UTF-8" standalone="no"?>
<!DOCTYPE svg PUBLIC "-//W3C//DTD SVG 1.1//EN" "http://www.w3.org/Graphics/SVG/1.1/DTD/svg11.dtd">
<!-- Generated by Microsoft Visio, SVG Export acquisition-Sequence.svg Acquisition-Sequence -->
<svg xmlns="http://www.w3.org/2000/svg" xmlns:xlink="http://www.w3.org/1999/xlink" xmlns:ev="http://www.w3.org/2001/xml-events"
		width="7.79111in" height="9.39272in" viewBox="0 0 560.96 676.276" xml:space="preserve" color-interpolation-filters="sRGB"
		class="st18">
	<title>Component Design</title>

	<style type="text/css">
	<![CDATA[
		.st1 {fill:#d8d8d8;stroke:#000000;stroke-linecap:round;stroke-linejoin:round;stroke-width:0.75}
		.st2 {stroke:#000000;stroke-dasharray:5.25,3.75;stroke-linecap:round;stroke-linejoin:round;stroke-width:0.75}
		.st3 {fill:#000000;font-family:Calibri;font-size:0.499992em;font-weight:bold}
		.st4 {font-size:1em}
		.st5 {fill:#ffffff;stroke:#000000;stroke-linecap:round;stroke-linejoin:round;stroke-width:0.75}
		.st6 {marker-end:url(#mrkr4-78);stroke:#000000;stroke-linecap:round;stroke-linejoin:round;stroke-width:0.239976}
		.st7 {fill:#000000;fill-opacity:1;stroke:#000000;stroke-opacity:1;stroke-width:0.068959096269629}
		.st8 {fill:none;stroke:none;stroke-linecap:round;stroke-linejoin:round;stroke-width:0.75}
		.st9 {fill:#000000;font-family:Calibri;font-size:0.499992em}
		.st10 {marker-end:url(#mrkr3-100);stroke:#000000;stroke-dasharray:1.67983,1.19988;stroke-linecap:round;stroke-linejoin:round;stroke-width:0.239976}
		.st11 {fill:#ffffff;fill-opacity:0;stroke:#923931;stroke-linecap:round;stroke-linejoin:round;stroke-width:0.25}
		.st12 {fill:#ffffff;stroke:#923931;stroke-linecap:round;stroke-linejoin:round;stroke-width:0.25}
		.st13 {fill:#923931;font-family:Calibri;font-size:0.499992em}
		.st14 {fill:#ffffff;fill-opacity:0;stroke:#50632a;stroke-linecap:round;stroke-linejoin:round;stroke-width:0.25}
		.st15 {fill:#ffffff;stroke:#50632a;stroke-linecap:round;stroke-linejoin:round;stroke-width:0.25}
		.st16 {fill:#50632a;font-family:Calibri;font-size:0.499992em}
		.st17 {fill:#d7e3bf;stroke:#000000;stroke-linecap:round;stroke-linejoin:round;stroke-width:0.75}
		.st18 {fill:none;fill-rule:evenodd;font-size:12px;overflow:visible;stroke-linecap:square;stroke-miterlimit:3}
	]]>
	</style>

	<defs id="Markers">
		<g id="lend4">
			<path d="M 2 1 L 0 0 L 2 -1 L 2 1 " style="stroke:none"/>
		</g>
		<marker id="mrkr4-78" class="st7" refX="-29.002700270027" orient="auto" markerUnits="strokeWidth" overflow="visible">
			<use xlink:href="#lend4" transform="scale(-14.501350135013,-14.501350135013) "/>
		</marker>
		<g id="lend3">
			<path d="M 2 1 L 0 0 L 2 -1 " style="stroke-linecap:round;stroke-linejoin:round;fill:none"/>
		</g>
		<marker id="mrkr3-100" class="st7" orient="auto" markerUnits="strokeWidth" overflow="visible">
			<use xlink:href="#lend3" transform="scale(-14.501350135013,-14.501350135013) "/>
		</marker>
	</defs>
	<g>
		<title>Acquisition-Sequence</title>
		<g id="group1000-1" transform="translate(57.5266,-626.011)">
			<title>Object lifeline.1000</title>
			<desc>Timer Trigger Function</desc>
			<g id="shape1001-2" transform="translate(2.83465,-1.41732)">
				<title>Sheet.1001</title>
				<rect x="0" y="650.764" width="51.0236" height="25.5118" class="st1"/>
			</g>
			<g id="shape1002-4" transform="translate(19.8425,-31.8898)">
				<title>Sheet.1002</title>
				<path d="M8.5 676.28 a0 0 0 1 1 0 0 a0 0 0 1 1 0 0 Z" class="st1"/>
			</g>
			<g id="shape1003-6" transform="translate(18.8976,608.011)">
				<title>Sheet.1003</title>
			</g>
			<g id="shape1004-8" transform="translate(704.622,676.276) rotate(90)">
				<title>Sheet.1004</title>
				<path d="M0 676.28 L589.38 676.28" class="st2"/>
			</g>
			<g id="shape1000-11">
				<rect x="0" y="647.93" width="56.6929" height="28.3465" class="st1"/>
				<text x="11.72" y="660.3" class="st3">Timer Trigger <tspan x="17.5" dy="1.2em" class="st4">Function</tspan></text>			</g>
		</g>
		<g id="group1005-15" transform="translate(142.566,-626.011)">
			<title>Object lifeline.1005</title>
			<desc>Table Storage</desc>
			<g id="shape1006-16" transform="translate(2.83465,-1.41732)">
				<title>Sheet.1006</title>
				<rect x="0" y="650.764" width="51.0236" height="25.5118" class="st1"/>
			</g>
			<g id="shape1007-18" transform="translate(19.8425,-31.8898)">
				<title>Sheet.1007</title>
				<path d="M8.5 676.28 a0 0 0 1 1 0 0 a0 0 0 1 1 0 0 Z" class="st1"/>
			</g>
			<g id="shape1008-20" transform="translate(18.8976,608.011)">
				<title>Sheet.1008</title>
			</g>
			<g id="shape1009-22" transform="translate(704.622,676.276) rotate(90)">
				<title>Sheet.1009</title>
				<path d="M0 676.28 L589.38 676.28" class="st2"/>
			</g>
			<g id="shape1005-25">
				<rect x="0" y="647.93" width="56.6929" height="28.3465" class="st1"/>
				<text x="11.29" y="663.9" class="st3">Table Storage</text>			</g>
		</g>
		<g id="group1010-28" transform="translate(227.605,-626.011)">
			<title>Object lifeline.1010</title>
			<desc>Storage Queue</desc>
			<g id="shape1011-29" transform="translate(2.83465,-1.41732)">
				<title>Sheet.1011</title>
				<rect x="0" y="650.764" width="51.0236" height="25.5118" class="st1"/>
			</g>
			<g id="shape1012-31" transform="translate(19.8425,-31.8898)">
				<title>Sheet.1012</title>
				<path d="M8.5 676.28 a0 0 0 1 1 0 0 a0 0 0 1 1 0 0 Z" class="st1"/>
			</g>
			<g id="shape1013-33" transform="translate(18.8976,608.011)">
				<title>Sheet.1013</title>
			</g>
			<g id="shape1014-35" transform="translate(704.622,676.276) rotate(90)">
				<title>Sheet.1014</title>
				<path d="M0 676.28 L589.38 676.28" class="st2"/>
			</g>
			<g id="shape1010-38">
				<rect x="0" y="647.93" width="56.6929" height="28.3465" class="st1"/>
				<text x="9.82" y="663.9" class="st3">Storage Queue</text>			</g>
		</g>
		<g id="group1015-41" transform="translate(312.645,-626.011)">
			<title>Object lifeline.1015</title>
			<desc>Queue Trigger Function</desc>
			<g id="shape1016-42" transform="translate(2.83465,-1.41732)">
				<title>Sheet.1016</title>
				<rect x="0" y="650.764" width="51.0236" height="25.5118" class="st1"/>
			</g>
			<g id="shape1017-44" transform="translate(19.8425,-31.8898)">
				<title>Sheet.1017</title>
				<path d="M8.5 676.28 a0 0 0 1 1 0 0 a0 0 0 1 1 0 0 Z" class="st1"/>
			</g>
			<g id="shape1018-46" transform="translate(18.8976,608.011)">
				<title>Sheet.1018</title>
			</g>
			<g id="shape1019-48" transform="translate(704.622,676.276) rotate(90)">
				<title>Sheet.1019</title>
				<path d="M0 676.28 L589.38 676.28" class="st2"/>
			</g>
			<g id="shape1015-51">
				<rect x="0" y="647.93" width="56.6929" height="28.3465" class="st1"/>
				<text x="10.66" y="660.3" class="st3">Queue Trigger <tspan x="17.5" dy="1.2em" class="st4">Function</tspan></text>			</g>
		</g>
		<g id="group1020-55" transform="translate(397.684,-626.011)">
			<title>Object lifeline.1020</title>
			<desc>Elexon SAA (API)</desc>
			<g id="shape1021-56" transform="translate(2.83465,-1.41732)">
				<title>Sheet.1021</title>
				<rect x="0" y="650.764" width="51.0236" height="25.5118" class="st5"/>
			</g>
			<g id="shape1022-58" transform="translate(19.8425,-31.8898)">
				<title>Sheet.1022</title>
				<path d="M8.5 676.28 a0 0 0 1 1 0 0 a0 0 0 1 1 0 0 Z" class="st5"/>
			</g>
			<g id="shape1023-60" transform="translate(18.8976,608.011)">
				<title>Sheet.1023</title>
			</g>
			<g id="shape1024-62" transform="translate(704.622,676.276) rotate(90)">
				<title>Sheet.1024</title>
				<path d="M0 676.28 L589.38 676.28" class="st2"/>
			</g>
			<g id="shape1020-65">
				<rect x="0" y="647.93" width="56.6929" height="28.3465" class="st5"/>
				<text x="14.3" y="660.3" class="st3">Elexon SAA <tspan x="22.26" dy="1.2em" class="st4">(API)</tspan></text>			</g>
		</g>
		<g id="shape1025-69" transform="translate(-586.151,266.265) rotate(-90)">
			<title>Activation.1025</title>
			<rect x="0" y="667.772" width="198" height="8.50394" class="st1"/>
		</g>
		<g id="shape1026-71" transform="translate(-501.112,122.265) rotate(-90)">
			<title>Activation.1026</title>
			<rect x="0" y="667.772" width="54" height="8.50394" class="st1"/>
		</g>
		<g id="shape1027-73" transform="translate(90.125,-582.925)">
			<title>Message.1027</title>
			<path d="M0 669.19 L69.58 669.19" class="st6"/>
		</g>
		<g id="shape1028-79" transform="translate(92.9597,-576.405)">
			<title>Sheet.1028</title>
			<desc>Get next settlement date</desc>
			<rect x="0" y="669.189" width="74.5512" height="7.08661" class="st8"/>
			<text x="6.64" y="674.53" class="st9">Get next settlement date</text>		</g>
		<g id="group1029-82" transform="translate(482.723,-626.011)">
			<title>Object lifeline.1029</title>
			<desc>Blob Storage</desc>
			<g id="shape1030-83" transform="translate(2.83465,-1.41732)">
				<title>Sheet.1030</title>
				<rect x="0" y="650.764" width="51.0236" height="25.5118" class="st1"/>
			</g>
			<g id="shape1031-85" transform="translate(19.8425,-31.8898)">
				<title>Sheet.1031</title>
				<path d="M8.5 676.28 a0 0 0 1 1 0 0 a0 0 0 1 1 0 0 Z" class="st1"/>
			</g>
			<g id="shape1032-87" transform="translate(18.8976,608.011)">
				<title>Sheet.1032</title>
			</g>
			<g id="shape1033-89" transform="translate(704.622,676.276) rotate(90)">
				<title>Sheet.1033</title>
				<path d="M0 676.28 L589.38 676.28" class="st2"/>
			</g>
			<g id="shape1029-92">
				<rect x="0" y="647.93" width="56.6929" height="28.3465" class="st1"/>
				<text x="12.48" y="663.9" class="st3">Blob Storage</text>			</g>
		</g>
		<g id="shape1034-95" transform="translate(166.66,-564.925)">
			<title>Return Message.1034</title>
			<path d="M0 669.19 L-76.54 669.19" class="st10"/>
		</g>
		<g id="shape1035-101" transform="translate(-245.994,176.265) rotate(-90)">
			<title>Activation.1035</title>
			<rect x="0" y="667.772" width="54" height="8.50394" class="st5"/>
		</g>
		<g id="shape1036-103" transform="translate(90.125,-528.925)">
			<title>Message.1036</title>
			<path d="M0 669.19 L324.69 669.19" class="st6"/>
		</g>
		<g id="shape1037-108" transform="translate(379.542,-523.255)">
			<title>Sheet.1037</title>
			<desc>Get File List</desc>
			<rect x="0" y="669.189" width="42.5197" height="7.08661" class="st8"/>
			<text x="7.14" y="674.53" class="st9">Get File List</text>		</g>
		<g id="shape1038-111" transform="translate(421.779,-510.925)">
			<title>Return Message.1038</title>
			<path d="M0 669.19 L-331.65 669.19" class="st10"/>
		</g>
		<g id="shape1039-116" transform="translate(-416.072,230.265) rotate(-90)">
			<title>Activation.1039</title>
			<rect x="0" y="667.772" width="36" height="8.50394" class="st1"/>
		</g>
		<g id="shape1040-118" transform="translate(90.125,-456.925)">
			<title>Message.1040</title>
			<path d="M0 669.19 L154.61 669.19" class="st6"/>
		</g>
		<g id="group1041-123" transform="translate(18.125,-455.933)">
			<title>Loop fragment.1041</title>
			<g id="shape1041-124">
				<rect x="0" y="647.93" width="273.26" height="28.3465" class="st11"/>
			</g>
			<g id="shape1042-126" transform="translate(0,-13.143)">
				<title>Sheet.1042</title>
				<desc>For Each File</desc>
				<path d="M0 676.28 L40.91 676.28 L48 669.19 L48 661.07 L0 661.07 L0 676.28 Z" class="st12"/>
				<text x="4" y="670.47" class="st13">For Each File</text>			</g>
		</g>
		<g id="shape1043-129" transform="translate(92.9597,-470.106)">
			<title>Sheet.1043</title>
			<desc>Enqueue File URL</desc>
			<rect x="0" y="669.189" width="56.126" height="7.08661" class="st8"/>
			<text x="6.89" y="674.53" class="st9">Enqueue File URL</text>		</g>
		<g id="shape1044-132" transform="translate(-501.112,266.265) rotate(-90)">
			<title>Activation.1044</title>
			<rect x="0" y="667.772" width="36" height="8.50394" class="st1"/>
		</g>
		<g id="shape1045-134" transform="translate(90.125,-420.925)">
			<title>Message.1045</title>
			<path d="M0 669.19 L69.58 669.19" class="st6"/>
		</g>
		<g id="shape1046-139" transform="translate(91.1171,-434.673)">
			<title>Sheet.1046</title>
			<desc>Increment settlement date</desc>
			<rect x="0" y="669.189" width="74.5512" height="7.08661" class="st8"/>
			<text x="4.47" y="674.53" class="st9">Increment settlement date</text>		</g>
		<g id="group1047-142" transform="translate(18.125,-214.988)">
			<title>Loop fragment.1047</title>
			<g id="shape1047-143">
				<rect x="0" y="492.024" width="524.409" height="184.252" class="st11"/>
			</g>
			<g id="shape1048-145" transform="translate(0,-161.849)">
				<title>Sheet.1048</title>
				<desc>For Each Queue Message</desc>
				<path d="M0 676.28 L42.16 676.28 L49.25 669.19 L49.25 653.87 L0 653.87 L0 676.28 Z" class="st12"/>
				<text x="4" y="663.27" class="st13">For Each Queue  <tspan x="4" dy="1.2em" class="st4">Message</tspan></text>			</g>
		</g>
		<g id="shape1049-149" transform="translate(-416.072,320.265) rotate(-90)">
			<title>Activation.1049</title>
			<rect x="0" y="667.772" width="36" height="8.50394" class="st1"/>
		</g>
		<g id="shape1050-151" transform="translate(-331.033,446.265) rotate(-90)">
			<title>Activation.1050</title>
			<rect x="0" y="667.772" width="162" height="8.50394" class="st1"/>
		</g>
		<g id="shape1051-153" transform="translate(260.204,-366.925)">
			<title>Message.1051</title>
			<path d="M0 669.19 L69.58 669.19" class="st6"/>
		</g>
		<g id="shape1052-158" transform="translate(259.07,-377.98)">
			<title>Sheet.1052</title>
			<desc>Dequeue File URL</desc>
			<rect x="0" y="669.189" width="60.6614" height="7.08661" class="st8"/>
			<text x="8.86" y="674.53" class="st9">Dequeue File URL</text>		</g>
		<g id="shape1053-161" transform="translate(-245.994,392.265) rotate(-90)">
			<title>Activation.1053</title>
			<rect x="0" y="667.772" width="54" height="8.50394" class="st5"/>
		</g>
		<g id="shape1054-163" transform="translate(345.243,-312.925)">
			<title>Message.1054</title>
			<path d="M0 669.19 L69.58 669.19" class="st6"/>
		</g>
		<g id="shape1055-168" transform="translate(383.794,-307.114)">
			<title>Sheet.1055</title>
			<desc>Get A File</desc>
			<rect x="0" y="669.189" width="38.2677" height="7.08661" class="st8"/>
			<text x="7.4" y="674.53" class="st9">Get A File</text>		</g>
		<g id="shape1056-171" transform="translate(421.779,-294.925)">
			<title>Return Message.1056</title>
			<path d="M0 669.19 L-76.54 669.19" class="st10"/>
		</g>
		<g id="shape1057-176" transform="translate(-501.112,356.265) rotate(-90)">
			<title>Activation.1057</title>
			<rect x="0" y="667.772" width="36" height="8.50394" class="st1"/>
		</g>
		<g id="shape1058-178" transform="translate(336.739,-330.925)">
			<title>Message.1058</title>
			<path d="M0 669.19 L-154.61 669.19" class="st6"/>
		</g>
		<g id="shape1059-183" transform="translate(290.551,-342.547)">
			<title>Sheet.1059</title>
			<desc>Log Incomplete</desc>
			<rect x="0" y="669.189" width="46.4715" height="7.08661" class="st8"/>
			<text x="4.47" y="674.53" class="st9">Log Incomplete</text>		</g>
		<g id="shape1060-186" transform="translate(-160.954,428.265) rotate(-90)">
			<title>Activation.1060</title>
			<rect x="0" y="667.772" width="36" height="8.50394" class="st1"/>
		</g>
		<g id="shape1061-188" transform="translate(345.243,-258.925)">
			<title>Message.1061</title>
			<path d="M0 669.19 L154.61 669.19" class="st6"/>
		</g>
		<g id="shape1062-193" transform="translate(347.653,-271.681)">
			<title>Sheet.1062</title>
			<desc>Save File</desc>
			<rect x="0" y="669.189" width="38.9764" height="7.08661" class="st8"/>
			<text x="8.9" y="674.53" class="st9">Save File</text>		</g>
		<g id="shape1063-196" transform="translate(-501.112,446.265) rotate(-90)">
			<title>Activation.1063</title>
			<rect x="0" y="667.772" width="36" height="8.50394" class="st1"/>
		</g>
		<g id="shape1064-198" transform="translate(336.739,-240.925)">
			<title>Message.1064</title>
			<path d="M0 669.19 L-154.61 669.19" class="st6"/>
		</g>
		<g id="shape1065-203" transform="translate(283.465,-250.421)">
			<title>Sheet.1065</title>
			<desc>Log Completed</desc>
			<rect x="0" y="669.189" width="51.4321" height="7.08661" class="st8"/>
			<text x="7.37" y="674.53" class="st9">Log Completed</text>		</g>
		<g id="group1066-206" transform="translate(18.1692,-50.8009)">
			<title>Other fragment.1066</title>
			<g id="shape1066-207">
				<rect x="0" y="534.544" width="524.665" height="141.732" class="st14"/>
			</g>
			<g id="shape1067-209" transform="translate(0,-119.329)">
				<title>Sheet.1067</title>
				<desc>Retry For Each File</desc>
				<path d="M0 676.28 L40.91 676.28 L48 669.19 L48 653.87 L0 653.87 L0 676.28 Z" class="st15"/>
				<text x="4" y="663.27" class="st16">Retry <tspan x="4" dy="1.2em" class="st4">For Each File</tspan></text>			</g>
		</g>
		<g id="shape1068-213" transform="translate(-586.151,601.065) rotate(-90)">
			<title>Activation.1068</title>
			<rect x="0" y="667.772" width="82.8" height="8.50394" class="st17"/>
		</g>
		<g id="shape1069-215" transform="translate(-501.112,565.065) rotate(-90)">
			<title>Activation.1069</title>
			<rect x="0" y="667.772" width="46.8" height="8.50394" class="st17"/>
		</g>
		<g id="shape1070-217" transform="translate(90.125,-132.925)">
			<title>Message.1070</title>
			<path d="M0 669.19 L69.58 669.19" class="st6"/>
		</g>
		<g id="shape1071-222" transform="translate(166.66,-114.925)">
			<title>Return Message.1071</title>
			<path d="M0 669.19 L-76.54 669.19" class="st10"/>
		</g>
		<g id="shape1072-227" transform="translate(88.441,-128.754)">
			<title>Sheet.1072</title>
			<desc>Get Incomplete File</desc>
			<rect x="0" y="669.189" width="74.5512" height="7.08661" class="st8"/>
			<text x="13.45" y="674.53" class="st9">Get Incomplete File </text>		</g>
		<g id="shape1074-230" transform="translate(92.6929,-89.7773)">
			<title>Sheet.1074</title>
			<desc>Enqueue File URL</desc>
			<rect x="0" y="669.189" width="56.126" height="7.08661" class="st8"/>
			<text x="6.89" y="674.53" class="st9">Enqueue File URL</text>		</g>
		<g id="shape1075-233" transform="translate(90.125,-78.9247)">
			<title>Message.1075</title>
			<path d="M0 669.19 L154.61 669.19" class="st6"/>
		</g>
		<g id="shape1076-238" transform="translate(-416.072,608.265) rotate(-90)">
			<title>Activation.1076</title>
			<rect x="0" y="667.772" width="36" height="8.50394" class="st17"/>
		</g>
	</g>
</svg>
