<?xml version="1.0" encoding="UTF-8" standalone="no"?>
<!DOCTYPE svg PUBLIC "-//W3C//DTD SVG 1.1//EN" "http://www.w3.org/Graphics/SVG/1.1/DTD/svg11.dtd">
<!-- Generated by Microsoft Visio, SVG Export cdm-broker-view-underwriting.svg Broker UWR -->
<svg xmlns="http://www.w3.org/2000/svg" xmlns:xlink="http://www.w3.org/1999/xlink" xmlns:ev="http://www.w3.org/2001/xml-events"
		width="11.6385in" height="14.3857in" viewBox="0 0 837.973 1035.77" xml:space="preserve" color-interpolation-filters="sRGB"
		class="st22">
	<title>Broker view of Underwriting</title>

	<style type="text/css">
	<![CDATA[
		.st1 {fill:#ffffff;stroke:#000000;stroke-linecap:round;stroke-linejoin:round;stroke-width:0.24}
		.st2 {fill:#000000;font-family:Calibri;font-size:0.499992em}
		.st3 {fill:none;stroke:none;stroke-linecap:round;stroke-linejoin:round;stroke-width:0.75}
		.st4 {font-size:1em}
		.st5 {marker-end:url(#mrkr25-29);marker-start:url(#mrkr29-27);stroke:#000000;stroke-linecap:round;stroke-linejoin:round;stroke-width:0.239976}
		.st6 {fill:#000000;fill-opacity:1;stroke:#000000;stroke-opacity:1;stroke-width:0.086948582161584}
		.st7 {marker-end:url(#mrkr28-81);marker-start:url(#mrkr29-27);stroke:#000000;stroke-dasharray:1.67983,1.19988;stroke-linecap:round;stroke-linejoin:round;stroke-width:0.239976}
		.st8 {marker-end:url(#mrkr25-29);marker-start:url(#mrkr30-103);stroke:#000000;stroke-linecap:round;stroke-linejoin:round;stroke-width:0.239976}
		.st9 {marker-end:url(#mrkr30-114);marker-start:url(#mrkr25-112);stroke:#000000;stroke-linecap:round;stroke-linejoin:round;stroke-width:0.239976}
		.st10 {marker-end:url(#mrkr28-81);marker-start:url(#mrkr28-133);stroke:#000000;stroke-linecap:round;stroke-linejoin:round;stroke-width:0.239976}
		.st11 {marker-end:url(#mrkr29-149);marker-start:url(#mrkr28-133);stroke:#000000;stroke-dasharray:1.67983,1.19988;stroke-linecap:round;stroke-linejoin:round;stroke-width:0.239976}
		.st12 {marker-end:url(#mrkr28-81);marker-start:url(#mrkr28-133);stroke:#000000;stroke-dasharray:1.67983,1.19988;stroke-linecap:round;stroke-linejoin:round;stroke-width:0.239976}
		.st13 {marker-end:url(#mrkr25-29);marker-start:url(#mrkr28-133);stroke:#000000;stroke-dasharray:1.67983,1.19988;stroke-linecap:round;stroke-linejoin:round;stroke-width:0.239976}
		.st14 {marker-end:url(#mrkr25-29);marker-start:url(#mrkr28-133);stroke:#000000;stroke-linecap:round;stroke-linejoin:round;stroke-width:0.239976}
		.st15 {marker-end:url(#mrkr25-29);marker-start:url(#mrkr25-112);stroke:#000000;stroke-dasharray:1.67983,1.19988;stroke-linecap:round;stroke-linejoin:round;stroke-width:0.239976}
		.st16 {marker-end:url(#mrkr28-81);marker-start:url(#mrkr29-27);stroke:#000000;stroke-linecap:round;stroke-linejoin:round;stroke-width:0.239976}
		.st17 {marker-end:url(#mrkr29-149);marker-start:url(#mrkr25-112);stroke:#000000;stroke-linecap:round;stroke-linejoin:round;stroke-width:0.239976}
		.st18 {marker-end:url(#mrkr25-29);marker-start:url(#mrkr29-27);stroke:#000000;stroke-dasharray:1.67983,1.19988;stroke-linecap:round;stroke-linejoin:round;stroke-width:0.239976}
		.st19 {marker-end:url(#mrkr29-149);marker-start:url(#mrkr29-27);stroke:#000000;stroke-linecap:round;stroke-linejoin:round;stroke-width:0.239976}
		.st20 {marker-end:url(#mrkr29-149);marker-start:url(#mrkr29-27);stroke:#000000;stroke-dasharray:1.67983,1.19988;stroke-linecap:round;stroke-linejoin:round;stroke-width:0.239976}
		.st21 {marker-end:url(#mrkr29-149);marker-start:url(#mrkr28-133);stroke:#000000;stroke-linecap:round;stroke-linejoin:round;stroke-width:0.239976}
		.st22 {fill:none;fill-rule:evenodd;font-size:12px;overflow:visible;stroke-linecap:square;stroke-miterlimit:3}
	]]>
	</style>

	<defs id="Markers">
		<g id="lend29">
			<path
					d="M 2.25 0.75 C 1.83579 0.75 1.5 0.414214 1.5 0 1.5 -0.414214 1.83579 -0.75 2.25 -0.75 2.66421 -0.75 3 -0.414214 3 0 3 0.414214 2.66421 0.75 2.25 0.75 Z M 0 -0.75 L 1.5 0 L 0 0.75 M 1.5 0 L 0 0 "
					style="stroke-linecap:round;stroke-linejoin:round;fill:none"/>
		</g>
		<marker id="mrkr29-27" class="st6" refX="33.00300030003" orient="auto" markerUnits="strokeWidth" overflow="visible">
			<use xlink:href="#lend29" transform="scale(11.501050105011) "/>
		</marker>
		<g id="lend25">
			<path d="M 1.5 -0.75 L 1.5 0.75 M 2.25 -0.75 L 2.25 0.75 " style="stroke-linecap:round;stroke-linejoin:round;fill:none"/>
		</g>
		<marker id="mrkr25-29" class="st6" orient="auto" markerUnits="strokeWidth" overflow="visible">
			<use xlink:href="#lend25" transform="scale(-11.501050105011,-11.501050105011) "/>
		</marker>
		<g id="lend28">
			<path d="M 0 -0.75 L 1.5 0 L 0 0.75 M 2 -0.75 L 2 0.75 " style="stroke-linecap:round;stroke-linejoin:round;fill:none"/>
		</g>
		<marker id="mrkr28-81" class="st6" orient="auto" markerUnits="strokeWidth" overflow="visible">
			<use xlink:href="#lend28" transform="scale(-11.501050105011,-11.501050105011) "/>
		</marker>
		<g id="lend30">
			<path
					d="M 2.25 0.75 C 1.83579 0.75 1.5 0.414214 1.5 0 1.5 -0.414214 1.83579 -0.75 2.25 -0.75 2.66421 -0.75 3 -0.414214 3 0 3 0.414214 2.66421 0.75 2.25 0.75 Z M 0.75 -0.75 L 0.75 0.75 M 1.5 0 L 0 0 "
					style="stroke-linecap:round;stroke-linejoin:round;fill:none"/>
		</g>
		<marker id="mrkr30-103" class="st6" refX="33.00300030003" orient="auto" markerUnits="strokeWidth" overflow="visible">
			<use xlink:href="#lend30" transform="scale(11.501050105011) "/>
		</marker>
		<marker id="mrkr25-112" class="st6" orient="auto" markerUnits="strokeWidth" overflow="visible">
			<use xlink:href="#lend25" transform="scale(11.501050105011) "/>
		</marker>
		<marker id="mrkr30-114" class="st6" refX="-34.503150315032" orient="auto" markerUnits="strokeWidth" overflow="visible">
			<use xlink:href="#lend30" transform="scale(-11.501050105011,-11.501050105011) "/>
		</marker>
		<marker id="mrkr28-133" class="st6" orient="auto" markerUnits="strokeWidth" overflow="visible">
			<use xlink:href="#lend28" transform="scale(11.501050105011) "/>
		</marker>
		<marker id="mrkr29-149" class="st6" refX="-34.503150315032" orient="auto" markerUnits="strokeWidth" overflow="visible">
			<use xlink:href="#lend29" transform="scale(-11.501050105011,-11.501050105011) "/>
		</marker>
	</defs>
	<g>
		<title>Broker UWR</title>
		<g id="shape1000-1" transform="translate(408.829,-449.248)">
			<title>Rectangle.1000</title>
			<desc>Cover-Holder</desc>
			<rect x="0" y="1021.6" width="57.4016" height="14.1732" class="st1"/>
			<text x="12.45" y="1030.49" class="st2">Cover-Holder</text>		</g>
		<g id="shape1001-4" transform="translate(617.481,-655.915)">
			<title>Rectangle.1001</title>
			<desc>Binding Authority</desc>
			<rect x="0" y="1021.6" width="64.4882" height="14.1732" class="st1"/>
			<text x="10.84" y="1030.49" class="st2">Binding Authority</text>		</g>
		<g id="shape1002-7" transform="translate(408.829,-746.886)">
			<title>Rectangle.1002</title>
			<desc>Sub Cover-Holder</desc>
			<rect x="0" y="1021.6" width="56.6929" height="14.1732" class="st1"/>
			<text x="6.89" y="1030.49" class="st2">Sub Cover-Holder</text>		</g>
		<g id="shape1003-10" transform="translate(489.922,-613.396)">
			<title>Rectangle.1003</title>
			<desc>Binding</desc>
			<rect x="0" y="1021.6" width="56.6929" height="14.1732" class="st1"/>
			<text x="19.2" y="1030.49" class="st2">Binding</text>		</g>
		<g id="shape1004-13" transform="translate(617.481,-556.703)">
			<title>Rectangle.1004</title>
			<desc>Capacity Agreement</desc>
			<rect x="0" y="1021.6" width="63.7795" height="14.1732" class="st1"/>
			<text x="7.19" y="1030.49" class="st2">Capacity Agreement</text>		</g>
		<g id="shape1009-16" transform="translate(518.269,-698.435)">
			<title>Sheet.1009</title>
			<desc>sometimes performs</desc>
			<rect x="0" y="1021.6" width="42.5197" height="14.1732" class="st3"/>
			<text x="4" y="1026.89" class="st2">sometimes <tspan x="4" dy="1.2em" class="st4">performs</tspan></text>		</g>
		<g id="group1015-20" transform="translate(518.269,-627.569)">
			<title>Relationship.1015</title>
			<g id="shape1015-21">
				<path d="M0 1027.85 L0 1027.49 L0 931.36 L-70.72 931.36 L-70.72 916.46" class="st5"/>
			</g>
		</g>
		<g id="group1020-30" transform="translate(489.922,-620.482)">
			<title>Relationship.1020</title>
			<g id="shape1020-31">
				<path d="M-7.92 1035.77 L-8.28 1035.77 L-31.39 1035.77 L-31.39 1192.84" class="st5"/>
			</g>
		</g>
		<g id="shape1025-38" transform="translate(458.436,-513.027)">
			<title>Sheet.1025</title>
			<desc>completed internally</desc>
			<rect x="0" y="1014.51" width="42.5197" height="21.2598" class="st3"/>
			<text x="4" y="1023.34" class="st2">completed <tspan x="4" dy="1.2em" class="st4">internally</tspan></text>		</g>
		<g id="group1026-42" transform="translate(546.615,-620.482)">
			<title>Relationship.1026</title>
			<g id="shape1026-43">
				<path d="M7.92 1035.77 L8.28 1035.77 L60.64 1035.77 L60.64 993.25 L70.87 993.25" class="st5"/>
			</g>
		</g>
		<g id="shape1031-50" transform="translate(564.735,-624.026)">
			<title>Sheet.1031</title>
			<desc>legal within</desc>
			<rect x="0" y="1028.69" width="42.5197" height="7.08661" class="st3"/>
			<text x="4" y="1034.03" class="st2">legal within</text>		</g>
		<g id="group1032-53" transform="translate(518.269,-613.396)">
			<title>Relationship.1032</title>
			<g id="shape1032-54">
				<path d="M0 1043.69 L0 1044.05 L0 1085.38 L99.21 1085.38" class="st5"/>
			</g>
		</g>
		<g id="shape1037-61" transform="translate(536.389,-567.333)">
			<title>Sheet.1037</title>
			<desc>conditions depend on</desc>
			<rect x="0" y="1028.69" width="66.0174" height="7.08661" class="st3"/>
			<text x="4" y="1034.03" class="st2">conditions depend on</text>		</g>
		<g id="shape1038-64" transform="translate(678.121,-449.248)">
			<title>Rectangle.1038</title>
			<desc>Transactional Model</desc>
			<rect x="0" y="1021.6" width="70.8661" height="14.1732" class="st1"/>
			<text x="10.47" y="1030.49" class="st2">Transactional Model</text>		</g>
		<g id="shape1039-67" transform="translate(678.121,-746.886)">
			<title>Rectangle.1039</title>
			<desc>Delegated Model</desc>
			<rect x="0" y="1021.6" width="70.8661" height="14.1732" class="st1"/>
			<text x="14.41" y="1030.49" class="st2">Delegated Model</text>		</g>
		<g id="shape1040-70" transform="translate(692.294,-590.98)">
			<title>Rectangle.1040</title>
			<desc>Business Distribution</desc>
			<rect x="0" y="1021.6" width="70.8661" height="14.1732" class="st1"/>
			<text x="9.82" y="1030.49" class="st2">Business Distribution</text>		</g>
		<g id="group1041-73" transform="translate(466.231,-463.421)">
			<title>Relationship.1041</title>
			<g id="shape1041-74">
				<path d="M7.92 1042.86 L8.28 1042.86 L211.89 1042.86" class="st7"/>
			</g>
		</g>
		<g id="shape1046-82" transform="translate(578.908,-459.878)">
			<title>Sheet.1046</title>
			<desc>activities according to</desc>
			<rect x="0" y="1028.69" width="63.7795" height="7.08661" class="st3"/>
			<text x="4" y="1034.03" class="st2">activities according to</text>		</g>
		<g id="group1047-85" transform="translate(465.522,-746.886)">
			<title>Relationship.1047</title>
			<g id="shape1047-86">
				<path d="M7.92 1028.69 L8.28 1028.69 L212.6 1028.69" class="st7"/>
			</g>
		</g>
		<g id="shape1052-93" transform="translate(578.908,-757.516)">
			<title>Sheet.1052</title>
			<desc>activities according to</desc>
			<rect x="0" y="1028.69" width="70.8661" height="7.08661" class="st3"/>
			<text x="4" y="1034.03" class="st2">activities according to</text>		</g>
		<g id="group1053-96" transform="translate(713.554,-746.886)">
			<title>Relationship.1053</title>
			<g id="shape1053-97">
				<path d="M0 1043.69 L0 1044.05 L0 1064.12 L14.17 1064.12 L14.17 1177.51" class="st8"/>
			</g>
		</g>
		<g id="group1058-105" transform="translate(727.727,-590.98)">
			<title>Relationship.1058</title>
			<g id="shape1058-106">
				<path d="M0 1035.77 L-0 1134.99 L-14.17 1134.99 L-14.17 1155.05" class="st9"/>
			</g>
		</g>
		<g id="shape1063-115" transform="translate(678.121,-690.193)">
			<title>Sheet.1063</title>
			<desc>splits responsibilities</desc>
			<rect x="0" y="1020.11" width="49.6063" height="15.6651" class="st3"/>
			<text x="33" y="1026.14" class="st2">splits <tspan x="8.99" dy="1.2em" class="st4">responsibilities</tspan></text>		</g>
		<g id="shape1064-119" transform="translate(685.207,-498.108)">
			<title>Sheet.1064</title>
			<desc>implemented by the</desc>
			<rect x="0" y="1020.11" width="42.5197" height="15.6651" class="st3"/>
			<text x="5.76" y="1026.14" class="st2">implemented  <tspan x="23.15" dy="1.2em" class="st4">by the</tspan></text>		</g>
		<g id="shape1065-123" transform="translate(578.908,-350.035)">
			<title>Rectangle.1065</title>
			<desc>Carrier</desc>
			<rect x="0" y="1021.6" width="56.6929" height="14.1732" class="st1"/>
			<text x="19.99" y="1030.49" class="st2">Carrier</text>		</g>
		<g id="group1066-126" transform="translate(454.489,-449.248)">
			<title>Relationship.1066</title>
			<g id="shape1066-127">
				<path d="M0 1035.77 L-0 1078.29 L152.77 1078.29 L152.77 1120.81" class="st10"/>
			</g>
		</g>
		<g id="shape1071-135" transform="translate(493.869,-410.272)">
			<title>Sheet.1071</title>
			<desc>volume/bespoke policy placement for</desc>
			<rect x="0" y="1028.69" width="113.386" height="7.08661" class="st3"/>
			<text x="4" y="1034.03" class="st2">volume/bespoke policy placement for</text>		</g>
		<g id="shape1072-138" transform="translate(578.908,-250.823)">
			<title>Rectangle.1072</title>
			<desc>Business Team</desc>
			<rect x="0" y="1021.6" width="56.6929" height="14.1732" class="st1"/>
			<text x="10.4" y="1030.49" class="st2">Business Team</text>		</g>
		<g id="group1073-141" transform="translate(600.168,-350.035)">
			<title>Relationship.1073</title>
			<g id="shape1073-142">
				<path d="M7.09 1035.77 L7.09 1112.53" class="st11"/>
			</g>
		</g>
		<g id="shape1078-150" transform="translate(607.255,-307.516)">
			<title>Sheet.1078</title>
			<desc>targets capacity to</desc>
			<rect x="0" y="1021.6" width="42.5197" height="14.1732" class="st3"/>
			<text x="4" y="1026.89" class="st2">targets <tspan x="4" dy="1.2em" class="st4">capacity to</tspan></text>		</g>
		<g id="shape1079-154" transform="translate(763.16,-350.035)">
			<title>Rectangle.1079</title>
			<desc>Business Division</desc>
			<rect x="0" y="1021.6" width="56.6929" height="14.1732" class="st1"/>
			<text x="7.59" y="1030.49" class="st2">Business Division</text>		</g>
		<g id="group1080-157" transform="translate(763.16,-598.067)">
			<title>Relationship.1080</title>
			<g id="shape1080-158">
				<path d="M0 1035.77 L28.35 1035.77 L28.35 1269.63" class="st12"/>
			</g>
		</g>
		<g id="shape1085-165" transform="translate(753.463,-541.374)">
			<title>Sheet.1085</title>
			<desc>models are used by</desc>
			<rect x="0" y="1014.51" width="38.0439" height="21.2598" class="st3"/>
			<text x="6.92" y="1023.34" class="st2">models are <tspan x="15.18" dy="1.2em" class="st4">used by</tspan></text>		</g>
		<g id="group1086-169" transform="translate(635.601,-257.909)">
			<title>Relationship.1086</title>
			<g id="shape1086-170">
				<path d="M0 1035.77 L155.91 1035.77 L155.91 943.65" class="st13"/>
			</g>
		</g>
		<g id="shape1091-177" transform="translate(678.121,-261.453)">
			<title>Sheet.1091</title>
			<desc>groups products within various</desc>
			<rect x="0" y="1028.69" width="99.2126" height="7.08661" class="st3"/>
			<text x="4" y="1034.03" class="st2">groups products within various</text>		</g>
		<g id="shape1092-180" transform="translate(419.056,-230.718)">
			<title>Rectangle.1092</title>
			<desc>Policy</desc>
			<rect x="0" y="1021.6" width="56.6929" height="14.1732" class="st1"/>
			<text x="21.21" y="1030.49" class="st2">Policy</text>		</g>
		<g id="group1093-183" transform="translate(447.402,-244.892)">
			<title>Relationship.1093</title>
			<g id="shape1093-184">
				<path d="M0 1027.85 L0 1027.49 L0 923.54 L131.51 923.54" class="st5"/>
			</g>
		</g>
		<g id="shape1098-191" transform="translate(451.349,-335.862)">
			<title>Sheet.1098</title>
			<desc>holds the risk for bound</desc>
			<rect x="0" y="1021.6" width="42.5197" height="14.1732" class="st3"/>
			<text x="4" y="1026.89" class="st2">holds the risk <tspan x="4" dy="1.2em" class="st4">for bound</tspan></text>		</g>
		<g id="shape1099-195" transform="translate(504.095,-145.679)">
			<title>Rectangle.1099</title>
			<desc>Endorsement</desc>
			<rect x="0" y="1021.6" width="56.6929" height="14.1732" class="st1"/>
			<text x="11.97" y="1030.49" class="st2">Endorsement</text>		</g>
		<g id="group1100-198" transform="translate(532.442,-159.852)">
			<title>Relationship.1100</title>
			<g id="shape1100-199">
				<path d="M0 1035.77 L0 957.82 L-56.69 957.82" class="st14"/>
			</g>
		</g>
		<g id="shape1105-206" transform="translate(494.398,-195.285)">
			<title>Sheet.1105</title>
			<desc>modified by</desc>
			<rect x="0" y="1014.51" width="38.0439" height="21.2598" class="st3"/>
			<text x="12.21" y="1023.34" class="st2">modified  <tspan x="28.18" dy="1.2em" class="st4">by</tspan></text>		</g>
		<g id="shape1106-210" transform="translate(404.883,-117.333)">
			<title>Rectangle.1106</title>
			<desc>Rating Guide</desc>
			<rect x="0" y="1021.6" width="56.6929" height="14.1732" class="st1"/>
			<text x="12.69" y="1030.49" class="st2">Rating Guide</text>		</g>
		<g id="shape1107-213" transform="translate(404.883,-18.12)">
			<title>Rectangle.1107</title>
			<desc>Rating Factor</desc>
			<rect x="0" y="1021.6" width="56.6929" height="14.1732" class="st1"/>
			<text x="12.2" y="1030.49" class="st2">Rating Factor</text>		</g>
		<g id="group1108-216" transform="translate(447.402,-230.718)">
			<title>Relationship.1108</title>
			<g id="shape1108-217">
				<path d="M0 1035.77 L0 1050.68 L-14.17 1050.68 L-14.17 1134.99" class="st15"/>
			</g>
		</g>
		<g id="shape1113-224" transform="translate(397.796,-174.026)">
			<title>Sheet.1113</title>
			<desc>adjusted premiums due to</desc>
			<rect x="0" y="1007.43" width="35.4331" height="28.3465" class="st3"/>
			<text x="10.33" y="1016.2" class="st2">adjusted <tspan x="6.74" dy="1.2em" class="st4">premiums </tspan><tspan
						x="15.61" dy="1.2em" class="st4">due to</tspan></text>		</g>
		<g id="group1114-229" transform="translate(426.143,-32.2932)">
			<title>Relationship.1114</title>
			<g id="shape1114-230">
				<path d="M7.09 1035.77 L7.09 950.73" class="st10"/>
			</g>
		</g>
		<g id="shape1119-237" transform="translate(433.229,-67.7263)">
			<title>Sheet.1119</title>
			<desc>combines the overall</desc>
			<rect x="0" y="1014.51" width="42.5197" height="21.2598" class="st3"/>
			<text x="4" y="1023.34" class="st2">combines the <tspan x="4" dy="1.2em" class="st4">overall</tspan></text>		</g>
		<g id="shape1120-241" transform="translate(375.828,-627.569)">
			<title>Rectangle.1120</title>
			<desc>Policy Document</desc>
			<rect x="0" y="1021.6" width="57.4016" height="14.1732" class="st1"/>
			<text x="8.15" y="1030.49" class="st2">Policy Document</text>		</g>
		<g id="group1121-244" transform="translate(404.528,-627.569)">
			<title>Relationship.1121</title>
			<g id="shape1121-245">
				<path d="M0 1043.69 L0 1044.05 L0 1129.06 L19 1129.06 L19 1199.92" class="st5"/>
			</g>
		</g>
		<g id="shape1126-252" transform="translate(380.483,-513.027)">
			<title>Sheet.1126</title>
			<desc>generated by the</desc>
			<rect x="0" y="1021.6" width="42.5197" height="14.1732" class="st3"/>
			<text x="6.24" y="1026.89" class="st2">generated by <tspan x="30.37" dy="1.2em" class="st4">the</tspan></text>		</g>
		<g id="group1127-256" transform="translate(404.528,-641.742)">
			<title>Relationship.1127</title>
			<g id="shape1127-257">
				<path d="M0 1027.85 L0 1027.49 L0 1007.34 L26.43 1007.34 L26.43 930.63" class="st5"/>
			</g>
		</g>
		<g id="shape1132-264" transform="translate(430.089,-690.193)">
			<title>Sheet.1132</title>
			<desc>sometimes issues</desc>
			<rect x="0" y="1021.6" width="45.3543" height="14.1732" class="st3"/>
			<text x="4" y="1026.89" class="st2">sometimes <tspan x="4" dy="1.2em" class="st4">issues</tspan></text>		</g>
		<g id="shape1133-268" transform="translate(252.924,-613.396)">
			<title>Rectangle.1133</title>
			<desc>Broker</desc>
			<rect x="0" y="1021.6" width="57.4016" height="14.1732" class="st1"/>
			<text x="20.54" y="1030.49" class="st2">Broker</text>		</g>
		<g id="group1134-271" transform="translate(302.625,-627.569)">
			<title>Relationship.1134</title>
			<g id="shape1134-272">
				<path d="M0 1027.85 L0 1027.49 L0 909.37 L106.2 909.37" class="st16"/>
			</g>
		</g>
		<g id="group1139-279" transform="translate(302.53,-613.396)">
			<title>Relationship.1139</title>
			<g id="shape1139-280">
				<path d="M0 1043.69 L0 1044.05 L0 1192.84 L106.3 1192.84" class="st16"/>
			</g>
		</g>
		<g id="shape1144-287" transform="translate(302.53,-464.577)">
			<title>Sheet.1144</title>
			<desc>Client facing representative</desc>
			<rect x="0" y="1014.51" width="49.6063" height="21.2598" class="st3"/>
			<text x="4" y="1023.34" class="st2">Client facing <tspan x="4" dy="1.2em" class="st4">representative</tspan></text>		</g>
		<g id="shape1145-291" transform="translate(302.53,-711.453)">
			<title>Sheet.1145</title>
			<desc>uses an internal or external</desc>
			<rect x="0" y="1014.51" width="49.6063" height="21.2598" class="st3"/>
			<text x="4" y="1023.34" class="st2">uses an internal <tspan x="4" dy="1.2em" class="st4">or external</tspan></text>		</g>
		<g id="shape1146-295" transform="translate(206.458,-825.994)">
			<title>Rectangle.1146</title>
			<desc>Consortium</desc>
			<rect x="0" y="1021.6" width="56.6929" height="14.1732" class="st1"/>
			<text x="14.12" y="1030.49" class="st2">Consortium</text>		</g>
		<g id="group1147-298" transform="translate(234.804,-825.994)">
			<title>Relationship.1147</title>
			<g id="shape1147-299">
				<path d="M0 1043.69 L0 1044.05 L0 1078.29 L32.82 1078.29 L32.82 1234.2" class="st16"/>
			</g>
		</g>
		<g id="shape1152-306" transform="translate(220.631,-740.955)">
			<title>Sheet.1152</title>
			<desc>provides coverages to</desc>
			<rect x="0" y="1021.6" width="46.063" height="14.1732" class="st3"/>
			<text x="21.08" y="1026.89" class="st2">provides <tspan x="11.01" dy="1.2em" class="st4">coverages to</tspan></text>		</g>
		<g id="group1153-310" transform="translate(263.15,-833.081)">
			<title>Relationship.1153</title>
			<g id="shape1153-311">
				<path d="M7.92 1035.77 L8.28 1035.77 L155.91 1035.77 L155.91 1107.8" class="st7"/>
			</g>
		</g>
		<g id="shape1158-318" transform="translate(331.749,-836.624)">
			<title>Sheet.1158</title>
			<desc>defines the % covered by</desc>
			<rect x="0" y="1028.69" width="73.1339" height="7.08661" class="st3"/>
			<text x="4" y="1034.03" class="st2">defines the % covered by</text>		</g>
		<g id="shape1159-321" transform="translate(206.457,-386.624)">
			<title>Rectangle.1159</title>
			<desc>Subscription</desc>
			<rect x="0" y="1021.6" width="56.6929" height="14.1732" class="st1"/>
			<text x="13.21" y="1030.49" class="st2">Subscription</text>		</g>
		<g id="group1160-324" transform="translate(234.804,-400.797)">
			<title>Relationship.1160</title>
			<g id="shape1160-325">
				<path d="M0 1027.85 L0 1027.49 L0 894.04 L46.82 894.04 L46.82 823.18" class="st16"/>
			</g>
		</g>
		<g id="shape1165-332" transform="translate(234.804,-563.789)">
			<title>Sheet.1165</title>
			<desc>agrees a line slip for</desc>
			<rect x="0" y="1021.6" width="46.063" height="14.1732" class="st3"/>
			<text x="11.48" y="1026.89" class="st2">agrees a line <tspan x="25.37" dy="1.2em" class="st4">slip for</tspan></text>		</g>
		<g id="group1166-336" transform="translate(263.15,-393.711)">
			<title>Relationship.1166</title>
			<g id="shape1166-337">
				<path d="M7.92 1035.77 L8.28 1035.77 L174.38 1035.77 L174.38 980.24" class="st7"/>
			</g>
		</g>
		<g id="shape1171-344" transform="translate(305.67,-397.254)">
			<title>Sheet.1171</title>
			<desc>defines the % covered by</desc>
			<rect x="0" y="1028.69" width="73.1339" height="7.08661" class="st3"/>
			<text x="4" y="1034.03" class="st2">defines the % covered by</text>		</g>
		<g id="shape1172-347" transform="translate(291.497,-315.758)">
			<title>Rectangle.1172</title>
			<desc>Declaration</desc>
			<rect x="0" y="1021.6" width="56.6929" height="14.1732" class="st1"/>
			<text x="14.28" y="1030.49" class="st2">Declaration</text>		</g>
		<g id="group1173-350" transform="translate(234.804,-386.624)">
			<title>Relationship.1173</title>
			<g id="shape1173-351">
				<path d="M0 1035.77 L0 1099.55 L48.41 1099.55" class="st17"/>
			</g>
		</g>
		<g id="shape1178-358" transform="translate(234.804,-344.104)">
			<title>Sheet.1178</title>
			<desc>might issue</desc>
			<rect x="0" y="1021.6" width="28.3465" height="14.1732" class="st3"/>
			<text x="4" y="1026.89" class="st2">might <tspan x="4" dy="1.2em" class="st4">issue</tspan></text>		</g>
		<g id="shape1179-362" transform="translate(432.875,-925.207)">
			<title>Rectangle.1179</title>
			<desc>Bordereaux</desc>
			<rect x="0" y="1021.6" width="57.4016" height="14.1732" class="st1"/>
			<text x="14.52" y="1030.49" class="st2">Bordereaux</text>		</g>
		<g id="group1180-365" transform="translate(461.576,-925.207)">
			<title>Relationship.1180</title>
			<g id="shape1180-366">
				<path d="M0 1043.69 L0 1044.05 L0 1064.12 L-24.4 1064.12 L-24.4 1199.92" class="st18"/>
			</g>
		</g>
		<g id="shape1185-373" transform="translate(436.78,-854.341)">
			<title>Sheet.1185</title>
			<desc>details all business written by</desc>
			<rect x="0" y="1007.43" width="42.5197" height="28.3465" class="st3"/>
			<text x="4" y="1016.2" class="st2">details all <tspan x="4" dy="1.2em" class="st4">business </tspan><tspan x="4"
						dy="1.2em" class="st4">written by</tspan></text>		</g>
		<g id="shape1186-378" transform="translate(22.2055,-996.073)">
			<title>Rectangle.1186</title>
			<desc>BDX Sheet</desc>
			<rect x="0" y="1021.6" width="57.4016" height="14.1732" class="st1"/>
			<text x="16.04" y="1030.49" class="st2">BDX Sheet</text>		</g>
		<g id="group1187-381" transform="translate(79.6071,-1003.16)">
			<title>Relationship.1187</title>
			<g id="shape1187-382">
				<path d="M0 1035.77 L381.97 1035.77 L381.97 1099.55" class="st14"/>
			</g>
		</g>
		<g id="shape1192-389" transform="translate(296.316,-992.529)">
			<title>Sheet.1192</title>
			<desc>has a data layout for</desc>
			<rect x="0" y="1028.69" width="73.1339" height="7.08661" class="st3"/>
			<text x="4" y="1034.03" class="st2">has a data layout for</text>		</g>
		<g id="shape1193-392" transform="translate(78.8984,-613.396)">
			<title>Rectangle.1193</title>
			<desc>Insured</desc>
			<rect x="0" y="1021.6" width="56.6929" height="14.1732" class="st1"/>
			<text x="19.15" y="1030.49" class="st2">Insured</text>		</g>
		<g id="group1194-395" transform="translate(135.591,-613.396)">
			<title>Relationship.1194</title>
			<g id="shape1194-396">
				<path d="M7.92 1028.69 L8.28 1028.69 L109.05 1028.69" class="st19"/>
			</g>
		</g>
		<g id="shape1199-403" transform="translate(163.874,-624.026)">
			<title>Sheet.1199</title>
			<desc>purchases a policy</desc>
			<rect x="0" y="1028.69" width="56.8197" height="7.08661" class="st3"/>
			<text x="4" y="1034.03" class="st2">purchases a policy</text>		</g>
		<g id="group1200-406" transform="translate(107.245,-613.396)">
			<title>Relationship.1200</title>
			<g id="shape1200-407">
				<path d="M0 1035.77 L0 1411.36 L303.53 1411.36" class="st17"/>
			</g>
		</g>
		<g id="shape1205-414" transform="translate(107.245,-266.152)">
			<title>Sheet.1205</title>
			<desc>transfers risk using</desc>
			<rect x="0" y="1014.51" width="42.5197" height="21.2598" class="st3"/>
			<text x="4" y="1023.34" class="st2">transfers risk <tspan x="4" dy="1.2em" class="st4">using</tspan></text>		</g>
		<g id="shape1206-418" transform="translate(78.8984,-925.207)">
			<title>Rectangle.1206</title>
			<desc>Claim</desc>
			<rect x="0" y="1021.6" width="56.6929" height="14.1732" class="st1"/>
			<text x="21.54" y="1030.49" class="st2">Claim</text>		</g>
		<g id="shape1207-421" transform="translate(234.804,-925.207)">
			<title>Rectangle.1207</title>
			<desc>TPA</desc>
			<rect x="0" y="1021.6" width="56.6929" height="14.1732" class="st1"/>
			<text x="23.6" y="1030.49" class="st2">TPA</text>		</g>
		<g id="group1208-424" transform="translate(100.158,-925.207)">
			<title>Relationship.1208</title>
			<g id="shape1208-425">
				<path d="M7.09 1043.69 L7.09 1044.05 L7.09 1333.41" class="st5"/>
			</g>
		</g>
		<g id="shape1213-432" transform="translate(107.245,-868.514)">
			<title>Sheet.1213</title>
			<desc>after a loss is suffered by</desc>
			<rect x="0" y="1014.51" width="45.3543" height="21.2598" class="st3"/>
			<text x="4" y="1023.34" class="st2">after a loss is <tspan x="4" dy="1.2em" class="st4">suffered by</tspan></text>		</g>
		<g id="group1214-436" transform="translate(291.497,-925.207)">
			<title>Relationship.1214</title>
			<g id="shape1214-437">
				<path d="M7.92 1028.69 L8.28 1028.69 L133.1 1028.69" class="st20"/>
			</g>
		</g>
		<g id="shape1219-444" transform="translate(324.662,-935.837)">
			<title>Sheet.1219</title>
			<desc>contributes claim details</desc>
			<rect x="0" y="1028.69" width="73.1339" height="7.08661" class="st3"/>
			<text x="4" y="1034.03" class="st2">contributes claim details</text>		</g>
		<g id="group1220-447" transform="translate(135.591,-925.207)">
			<title>Relationship.1220</title>
			<g id="shape1220-448">
				<path d="M7.92 1028.69 L8.28 1028.69 L99.21 1028.69" class="st5"/>
			</g>
		</g>
		<g id="shape1225-455" transform="translate(172.986,-935.837)">
			<title>Sheet.1225</title>
			<desc>handled by</desc>
			<rect x="0" y="1028.69" width="38.5959" height="7.08661" class="st3"/>
			<text x="4" y="1034.03" class="st2">handled by</text>		</g>
		<g id="shape1226-458" transform="translate(22.2055,-344.104)">
			<title>Rectangle.1226</title>
			<desc>UMR</desc>
			<rect x="0" y="1021.6" width="57.4016" height="14.1732" class="st1"/>
			<text x="22.58" y="1030.49" class="st2">UMR</text>		</g>
		<g id="group1227-461" transform="translate(43.8197,-996.073)">
			<title>Relationship.1227</title>
			<g id="shape1227-462">
				<path d="M7.09 1043.69 L7.09 1044.05 L7.09 1673.57" class="st5"/>
			</g>
		</g>
		<g id="shape1232-469" transform="translate(18.375,-938.619)">
			<title>Sheet.1232</title>
			<desc>groups entries by</desc>
			<rect x="0" y="1006.67" width="32.177" height="29.1074" class="st3"/>
			<text x="11.45" y="1019.42" class="st2">groups <tspan x="4" dy="1.2em" class="st4">entries by </tspan></text>		</g>
		<g id="shape1233-473" transform="translate(22.2055,-145.679)">
			<title>Rectangle.1233</title>
			<desc>Accounts</desc>
			<rect x="0" y="1021.6" width="57.4016" height="14.1732" class="st1"/>
			<text x="17.52" y="1030.49" class="st2">Accounts</text>		</g>
		<g id="shape1234-476" transform="translate(219.922,-145.679)">
			<title>Rectangle.1234</title>
			<desc>Revenue Target</desc>
			<rect x="0" y="1021.6" width="57.4016" height="14.1732" class="st1"/>
			<text x="9.55" y="1030.49" class="st2">Revenue Target</text>		</g>
		<g id="shape1235-479" transform="translate(220.631,-74.8129)">
			<title>Rectangle.1235</title>
			<desc>Loss Ratio</desc>
			<rect x="0" y="1021.6" width="57.4016" height="14.1732" class="st1"/>
			<text x="16.49" y="1030.49" class="st2">Loss Ratio</text>		</g>
		<g id="group1236-482" transform="translate(43.8197,-344.104)">
			<title>Relationship.1236</title>
			<g id="shape1236-483">
				<path d="M7.09 1035.77 L7.09 1211.75" class="st21"/>
			</g>
		</g>
		<g id="shape1241-490" transform="translate(18.375,-244.892)">
			<title>Sheet.1241</title>
			<desc>facilitates group</desc>
			<rect x="0" y="1006.67" width="32.177" height="29.1074" class="st3"/>
			<text x="4.58" y="1019.42" class="st2">facilitates <tspan x="13.79" dy="1.2em" class="st4">group</tspan></text>		</g>
		<g id="group1242-494" transform="translate(79.6071,-145.679)">
			<title>Relationship.1242</title>
			<g id="shape1242-495">
				<path d="M0 1028.69 L132.04 1028.69" class="st17"/>
			</g>
		</g>
		<g id="shape1247-502" transform="translate(107.245,-156.309)">
			<title>Sheet.1247</title>
			<desc>determine the profitability</desc>
			<rect x="0" y="1028.69" width="87.3071" height="7.08661" class="st3"/>
			<text x="4" y="1034.03" class="st2">determine the profitability</text>		</g>
		<g id="group1248-505" transform="translate(50.9063,-145.679)">
			<title>Relationship.1248</title>
			<g id="shape1248-506">
				<path d="M0 1043.69 L0 1044.05 L0 1099.55 L169.72 1099.55" class="st5"/>
			</g>
		</g>
		<g id="shape1253-513" transform="translate(97.8906,-85.4428)">
			<title>Sheet.1253</title>
			<desc>determine a Carrier’s</desc>
			<rect x="0" y="1028.69" width="87.3071" height="7.08661" class="st3"/>
			<text x="4" y="1034.03" class="st2">determine a Carrier’s</text>		</g>
	</g>
</svg>
